<mxfile host="Electron" modified="2024-01-26T09:23:45.869Z" agent="Mozilla/5.0 (Windows NT 10.0; Win64; x64) AppleWebKit/537.36 (KHTML, like Gecko) draw.io/21.2.8 Chrome/112.0.5615.165 Electron/24.2.0 Safari/537.36" etag="IRY03LKYrlSVpFEeBZvX" version="21.2.8" type="device">
  <diagram name="Page-1" id="2XWkQP5S-hDbL94sL5Vg">
    <mxGraphModel dx="1870" dy="854" grid="1" gridSize="10" guides="1" tooltips="1" connect="1" arrows="1" fold="1" page="1" pageScale="1" pageWidth="3300" pageHeight="4681" background="#999999" math="0" shadow="0">
      <root>
        <mxCell id="0" />
        <mxCell id="1" parent="0" />
        <mxCell id="OFI7zE9tUY9UPtECGpIP-1" value="Attached Signal Handlers" style="rounded=0;whiteSpace=wrap;html=1;fillColor=#dae8fc;strokeColor=#6c8ebf;fontSize=30;" parent="1" vertex="1">
          <mxGeometry x="600" y="70" width="850" height="120" as="geometry" />
        </mxCell>
        <mxCell id="V3xqVKPgk6EzwLKCYTCH-1" value="" style="shape=image;verticalLabelPosition=bottom;labelBackgroundColor=default;verticalAlign=top;aspect=fixed;imageAspect=0;image=data:image/png,iVBORw0KGgoAAAANSUhEUgAAA10AAAK8CAYAAAAUFNXMAAAAAXNSR0IArs4c6QAAAARnQU1BAACxjwv8YQUAAAAJcEhZcwAADsMAAA7DAcdvqGQAALJKSURBVHhe7P1/bBRXnuj9fwh+BLZHBNNmBpsATUJMyHwJYC8Jey0chU2yYjOMrckXy94/Vsl+w2hiaSEiF4mMEmWjRBMkblCGKzmjIfcmun+sLVBW9mTYaDbZIIj8DAljQyaaEBgyNDjYzIIxybPGoAcm33OqTnVXdVe1+1e1f71fUuPq6q4+VdXV9Pn0OedzZty3avW3AgAAAAAIxW3mLwAAAAAgBARdAAAAABAigi4AAAAACBFBFwAAAACEiKALAAAAAEJE0AUAAAAAISLoAgAAAIAQEXQBAAAAQIgIugAAAAAgRARdAAAAABAigi4AAAAACBFBFwAAAACEiKALAAAAAEJE0AUAAAAAISLoAgAAAIAQEXQBAAAAQIgyCrpmP/2afO+Nf5HI0+vNGqDQKqX11TbpfLtN9myuMesKJ7q51bx2pVkDAAAAFMfYQdeiFim/r8paLPneQimxllDSpAPRZ2W2uR+WaP062fGqHTDYt1bZoYKSqHk8mAliXl2XwXMTci8vT0uWyVr7MpPqx+6SBnsRAAAAmPTGDrr6j8qNP+uFQbl+4qjctFZOd1GZvVpFCH++EOr5aNjWKru21EpdVYVZo1VI3WMPy65XNxY8MCl2eR7nzsixQXtx4OCXcsReBAAAACa9DLoXxuS//vnv5c9PPytfd8XMuulukcz8nvoTYtClu8O1rdHBz7D0HtwvO59olxZ9e/ED6dXBSdVSacuyFSudYpeX6rJ0PGeXuf3AabMOAAAAmPxIpJGLB+63uhVe7/vIvl9wNbL5Mbu1qXdfh+w+cFmFvsa507L7ORUI6eWqWtlcb631MU/uMN31xlaI8gAAAAD4mXHfqtXfmmXbA8/K956oM3dc/vwrGfrnzoCWnah8559/JuV/fkP+/GuR7/ygyR4H9udeGflfr8l/yfrUdf1mU/e2b3wkJQ+0SPnGH8ps3ZKk3DTPvx5/fpJFUZn9g3+yXjs+3kxv89478l8fB7fM6TFZkb8VGfnZs/a+LFovt///mlS5JlJRr/F1vFz12D+7HktLbfe02s7cy0n9RuncslRksE92Pnc0EQC5Oc85/oG0/Ny0DKl1e36wVKoz2c2k7XIqb8k62fNSrVQHbqfHlTVLY9WwdL/YIR3nzOr4enM3ycDB/bJdBX7pVUq0fq1s/cFcdbxOd8hhGTjeK3vV/iXvi27J26UCy6DX1l0rrZY+dXw7fbYHAAAAcpXS0lVSVW2WvG6mHc9lutvJ/XL7T5+OJ96Q79XJrB88K5GkdeU/cGVBXLROZqltb8pC+Y4KViJPJAIurUQ9//afvibfWWRWuJSoADHy05/J7e6AS9NlPPEziTQFd4YrqdL7MyA3VVBlJcVQ++gJqvQ+OIHeooVqPwIihGQF6HIYrZ5r/R3oOxNc+f9KBRj67xpv0omMAq4k+ZQ3LpbUyA4VtO1SQWAi4NIqpHrNw7Lr7VZpXWJWZSDetZKACwAAACFICbpudj0rf35aj+Eyt7etjmVyczBNVVQHJfrvfXUy+/dvyJBruxK1riRpnUe1vW3JfT9UgZnI9bd/aj9X3372hly3knhUeQM1TQdcT6jXVos3nde3bmr735iy//affIM13bpWooMqHSDp1/nbKvs1fpZ4ja/ffifRWtXf6Xp9tU96nW75i69z3QJbAzO3uNoOJAYH0rT2nLsidt6JubLQCTB63rPHYVk30yVQt0LF17luTmuVknN5OUuM33Lfdh4cNo+nowKulx6WOh1cDp6V7n37Xa+xX9oPnlXBYYXccYf97LE4LWDWeSLgAgAAQAjGHNNlt3wNyi2rmSOACZysQOSNj+ygY8C0+LjXGTcHE30F4y1rVhDzrHz9cSzx3P6P5Ov/9Sv7vidd/Xq53XSBvP723ye9vtq+6zUVeFnZH2RWnV9rl9Myt1a9TrUd6OnXiO9WTK4HdU10AszQkmhUysIF+u+wfPWVtSLAFfnKjoLyVOzy8hPdXCfWO291aXxPOnrcgeJlOXLgPdn+4n7Z3WNWpeEJuIK6VQIAAAB5GiPoclKjHwseU6U4gdP191ytPCYQc69znuduNbO7+Q3KyP8KaCHqTw1uSpqarEQWN3/zUxWk2euS3ew9Zm1XUuXT1OUETt+rkptv24FexpzjCi2JBoJVyl/X6la5Yen+RZog6dxY48HcAddZaSfgAgAAQIjGCLoyS43uBE7u1rDZtbo9wrvOfl6v3IgHSqabnxlblSmnvBu9OVaVTeCULmgL4ndchXVZLlzUf8fqIpdNdsJ0il1ePpx9uCoX4kk5shet32gHXJZhOW+WAAAAgDCkD7oySo2+Xmbdp/+6Aye/YMo8zxPAmaDu958EZ/tL6c6XYaDmBFaurowOJ3DKPmjLLUjM1vkBe2xTVXWl9dfXknlix0D5BSBascsbV7WPWAk4dJfCdj2GrKpWdm2rMQ8CAAAAhZc26MpoPJcTFHkCJ59gym8slAnq/AIjx+wf/NDaLrvufFH5zkZ7zFdqApB8AqcMgsQCiA1ctf5W1y5Te+svev9SsTprHv9SjlhrAlRVyGKzGKSg5RVF7sk8qnW2QzOG68iBDmk/rlaueVh2MP8YAAAAQjJG0KXbNnJoUfILpnye5zfGy+OBZ+V2qxXN3SUxJjetjIZ1MusBa0WKkqZ/knIdHP35VzKS0n0wsy6TvpzAMWw9X44xGbFrMuPfJbIQ+ssgQMm1PCejYUBgF938SOBcXLk5LR/rIEkqpPEn6wIDRFlSGfxYUtKMIz+3szzWbckuzTwAAACQqTRBl9MiVCflrvmuSh5YL7NduSn8k2Nkus6ukc9+4l8k0rTeFdBEZfbTr8Unab7+tney4et9dkr42U+8Jrc/4KpeL1pvz/X1t/p1A5Jz+LW4Zeu+JvmOq9wSq9wWK9AsjNNywKRP18HAjs2uIMKao+rheAa/A4FZ+rwBSoM7oFBBSUO9uythruU5GQ2XStu2Gtc2ldK6zSSqKLAjXX1iNbzqboGvbpRWz3HoCZM3yp6XmgO7DKbORXZadu87q/6OEcgBAAAAOZpx36rV35rlFHrSYDuA8dJp2p0EFLOf/he5/T4V4PzsWfkv04hlr+uVr1UAZAdLUfnOP/9Myr/ns04FRzelygR4qXSyi6EubzVZs8swd1J498fjgWetYC7oddNzjsPcTeI+L4XQoAIXa9JeP1bWvffSd/Vbsk4FILV2t8AUavsnvNvnVJ4Kcjr1GCkfAwf3S1d1s3rNYel+sUM6xhgL5mQU1NttP5AmA2Ha49JSyxvrtePZDI9/4JnDDAAAAMhX2u6FN7v+p3z9e/fkTINy/TdvuLrs+Y2PMuv8Emb4ruuSoX/+qVWOu+Xp5u9/JV//7O8DA6Prb6jH3u41XQ2NP9v7p+f78g24lDG7NKYVk/9S+zriOSfqtf6sgkm1r4UMuLQjP++QnfvOyoCnuGEZUIGBnqNqzLFV547K9hc/kN5BuxXLMWBNKnwsZfucyut5L3UbHaC92G4FN06SjoLSx+VMhOy3r0+MHeAlix14X7r1a1nju9IkFAEAAACylLalK1SLWiTy0x+K5NTiNP0UuyWGlh8AAACgMNKnjA9RSd1ak1iDgCsTsQO9drKLNQ/LHvf4qZAUuzwAAABgqhq3li6/sWAYg04SscWkbo/LbLxUTopdHgAAADAFjVNLV3EmGZ5yet6zxmh1Hw9hnJSfYpcHAAAATEHj1NK1Xm5/42mZ/edfydA/+6R1BwAAAIApYvwSaQAAAADANDBuiTQAAAAAYDog6AIAAACAEBF0AQAAAECICLoAAAAAIEQEXQAAAAAQIoIuAAAAAAgRQRcAAAAAhIigCwAAAABCRNAFAAAAACEi6AIAAACAEBF0AQAAAECICLoAAAAAIEQEXQAAAAAQIoIuAAAAAAgRQRcAAAAAhIigCwAAAABCRNAFAAAAACEi6AIAAACAEBF0AQAAAECICLoAAAAAIEQEXQAAAAAQIoIuAAAAAAgRQRcAAAAAhIigCwAAAABCRNAFAAAAACEi6AIAAACAEBF0AQAAAECICLoAAAAAIEQEXQAAAAAQIoIuAAAAAAgRQRcAAAAAhIigCwAAAABCRNAFAAAAACEi6AIAAACAEBF0AQAAAECICLoAAAAAIEQEXQAAAAAQIoIuAAAAAAgRQRcAAAAAhGjGfatWf2uWC2yGLPrHmbJwnsjox7fk049CKsaXU/a3cuH/3JL+/zSrJ7VKadi8Vppql0p1lVklZ6X9iffkiLkHAAAAYOKJt3RVNpXIuv9eIqvWzzBr0pkhNeq56/77TFn0XbMq2XdnyDwVcGmlD9ymQgbko2Fbs7Q95g64AAAAAEwG8aDr2pDdElUasf6kpwKqUrM4GtSK9J/fypUr9uLox3+Ry/YiclIpCxfYS7379kvLE+3mRisXAAAAMNG5gi6zMG+GlJnFQJUm6LryrVyzVvj5Vvr/9005+j9uFrlr4RQ22CcHeghfAQAAgMkkkUjj8rcyahYzljboAgAAAADM/N6CBf9sLZXPkAWrZsj/VSry//zfTjA1QyqbZsrd/+02uf3GtzJ0yVopZffcJt+7Y4aM/vFb+fN5vUYnriiRe//mNrlDPTf5FpnpPC+Z2W6Nit+Ofyv/r1PeD2bKUmfb76r9+UI/5meGlN07U+7dpJ5vytbPv6WCwZuVt1ljyv6fT7+Vb0bM013K7r1Nlqrt7o7v8wxTlnjK0mPd7vvBbVJ29S/x47d8V5Wtztn/m/Ta9vNnyIwz/uXm5prM+/+slbXfGZQP/uMruWrWAgAAAJj4Ei1d/5lo6Sp1JceYt2yGlM6bIfNqEgk2yiL28qgZB5Y33aVRBTE1/zhTlunyzGqtdNltct8/qqDH3E+wMxTe93d6/8wqRT9/2T/YWRP92YHefX9nB2UJ6nWWqddLSg6SGOvmTjCiXkMFhvepcryJR8y+qKBvKIyMiVUVstgsAgAAAJgcEkGXMmoSX8TdqwITs5g61ksFafHhRYnxW+7b7z/ONCibYQVK83SK93+7ldj+38z2826TO+61Fx26RcwOrL6VK+5t/s8tuXLFG4i5la2/zXe7o2q7C9bxz5CFal+cbIvOWDdPghF3Zka/9XS7BAAAAGC4gi4VRJmgo9REHGVWQKGCkzPqjwq6dPe7eGuOEpi5MBcqUDnzP25J/+eJQO3a57fkjC5b8bQ0fVcFTsv0gj0P12n3Nv/5rZz+304AlURtd/cD+nVSt9Mtff3x7VTg5bRgff4XsVa5g04rkUjivHjX6xZA+25hVEp080ZpWqMWB4fFt5cmAAAAgAnL09Ll7Uqngqy71V8VDF2x1ieCsaBWpNypIOjXt3zTyjv75OFkTzzzl+wmPh5zOxV4HTXnQB27E0xZwagruKrUXS2d8xIPRp0gtUDdLpeskz1vt0nn282yS8/PNXhWun9xVGLmYQAAAACTQ1LQZRYMZ3zS5VP2eC/3uK7x7EKXCG7sv5nKaDsni2M8yEq0AM6zujiqwM05L9brJIJRe6ybCsY+t+8X0oC6XbAXAQAAAEwinqDLCTiscUpmPNeV098mkmzoQMSZGHkcg65iS06moYMuK3CLny+9XgVlustjoc7LuaOy3ZoAeb+0HxyW6qql0vaTdRI1DwMAAACYHLxBlyu4qjTjuexkGanjlwo7bik3niQWWUi7nc/Ez9dMS587GLW6EKrzdeWKWq+7IoYWjF6WIwc6pP24WiR7IQAAADDpeIMuxclg6LTqOMky7NaeGTLvv9nBRcHSxefACYJk2W3xLIMe31X7ryOjJO7t3GnhE2bIonXmuP/oCp58glG7C6Fa74z3CiWJBgAAAIDJLinocoIIkx3wzF/iyS3irT1WMKOW/bJeFItpYdJB0rJ/nCmVrgBKT5a8SqefN/c9/vMvcsHKhminha+51w6wLN+15/1y0slf+MgbVDrB1TwdjLpasy7r7pfKvBr9r9ovdZ4AAAAAwJHS0uXmabUxrT16omStoOnis/at9P/6L/HWp2X/UCLr/rt9syZLVkGR1R3Sx+WuRFr4eX83M77dOhWExQOu/5OcSdEEo3qb5HFb1rguvT7M81IpCxeoP6SMBwAAACadlKArkaI9tdXG6Xo4IfznX+RTPaHxGfc+qn3++Jb8/n/fkq8Cuz/aEzn//t/+YlrLHCp4OqO21XOF+QROTouWZiUXcThdD7WCj+cCAAAAMNnNuG/V6qDoBBNGpbS+2iyN0ic7n2OuLgAAAGAySdu9EBNMVa1srvdNHQIAAABggqKla5KIbm6VXY9VmHuOs9L+xHtyxNwDAAAAMPHQ0jVJxA50yM6DZ2Vg0KwAAAAAMCnQ0gUAAAAAIaKlCwAAAABCRNAFAAAAACHyBF2LF0fNEgAAAACgEGjpAgAAAIAQEXQBAAAAQIgIugAAAAAgRARdAAAAABAigi4AAAAACBFBFwAAAACEiKArZwvkmdoX5NP6F6R78UqzLlvOa7TJM+VmVV4K/XoAAAAA8kXQlavye+WhUnsxumiFbLIXQ2ACqdoNssKsAQAAADB5EHTlauRzOTRqL8b6T8q79iJyEK1fJztebZXOt9vMrVX2bKuRzKfqrpTWV822art07LKccuyydmzOpiwAAAAgOwRdObsor/e9LKt6XpbG85+ZdciOHSzt2lIrdVUVZp1WIdVrHpZdr26UhiVmVRoN25qlscrcSSO6udWUZVZYKqTuMV3WOgIvAAAAhIKga8KbL3eaboxFsyTRGrRnc6VZWXjxYGnwrHTv2y8tT7Sb235pPzgsoh87Zz01kA6k2taIDBzsk16zzpc6pq2P6cBuWHoP7pedTlkvfiC9g2p1Va3sGqOVDAAAAMjFjPtWrf7WLMvixVE5fz5m7k0tm+55QV6JiBw+/bJsvWRWauULrLFSJ0cu2vcN+/lD8taJdnl9RI+r2iJPBgQ/sf590njeu72XKmN+g+xatFyi5jViQz3yZv+HIovc5diPyfxm6XY9N62hLln1hdPS5uxnYr833fMjeSoSibfi6HJ3fvGhnDT3/TRsa7MCGduwdL/YIR1jBD9Zq98onVuWqoWz0v7Ee3LEXpsd5zWOfyAtXfNkz0u1Uq2Xf37aPCHBOaYBFXBtP3DZrHXUyI63H5a6sI4VAAAA09q0aek6c23I+rukdIH116aClOVbpHP1Fule7F1/V5n6M/qF/MYJhHJmB0KdNd4gKhqpl1dWt8lTuhwfGQVc6ZStlL2q3FdcAZemy+2cAEk5Gv5KB1wivftyDLiWrJM9TtDmE2R51cgDVhB5VrpSAi7ttBzQLWtSIXfcYa8BAAAACmXaBF0nR+3KdrRsvvXX4s5A6Lf+2iXTIpQYv+W+tfTbgVw6m+5xWsiG5PDpfYltT3TJ4VEVEPkFV5f2u8pRz9PrRnukJb7OdYu3crlF5MmaJnlQt3i5yzx9yn64tF6edh1usiNdfXaXO2Xg4PshtPwkgqCPe9SfJTXSus2VSOPVsZJb1MgO3aqVaSvZknlWT0U5/qXnue7Xjw1ctf5WVYfXnRIAAADT0/QZ03XppB28qOAq3spTVqkq3qfksI6dUtarirgKuvJSvkGeiugFu7vf1kuJLognRz6TrX375C2TAbHgRk/J8z3t8rq7TBXMPW/iRG+LX5JzR2X3c/aYp9SueAU0OCzndYvVSw9L4xpXIo0qk9zCd4yVTr7hdAXMsJXsjgoVoKkAcuCKfd/qTtgmu9xj1r4algH1p7p6nn0fAAAAKJBplEjjkvxJBzillbLMXiGbIstVcHJZ3tddD0vvkb81EwqvUM/Rzo2mG6eVARO8ydBHifFaRaGCvFP7fdPYO90sx5XT8iRLZatusRo8K+0vOkk02mXnvrNWACRrHpYd9dYT45zkG7378hh7VX+XCtpsBFkAAAAI2zQKui7Kl9f03+XyiNW1zozbunZJ3rW6HkbkTjO+almZbp46Je/n2dDlBG95t5hNVVUVVuKLnc+9J0dcAVSs5z3ZrgIvre6vEq1diUyF+2W37paYpXiA1XNMuq3uk8PS+7uxxoMBAAAA+ZlGQVdyMg07FbsVEF27LDpno71+pTyiYy4ViJ1RfxCCc1fEHjJmJ8HwzZdpuvvJgnlm7FWNbLZSvqvg6bHmxPgv52aN8VLWPGzWbZQG69mK81pxl6XD6j7ZkQjeUrogAgAAAIUxrYKuk0NfWBV8K2nG/BXyoFq2uhCOfC6HRtX6yntlRfl8sebjjSfRyJ8nSUeuXN0iJ78r8pVJ1FEUTpC35q5EIJYkWj3X+js4EOIYNgAAAExL0yrokpFL9ly7KgjaZHX9c7oQmq6HOrApVBINxQnyJLJCNllrkqgAL/OJjyvlLjPmLHShT458WX7bp1O0L5UHksZsOaL3L7VbnvrOmJaw07LbmdDY7/Zin92apefpsta5k2yclo+P679Lpcn3eJxWNJNNEQAAACig6RV0uZJpPKLHbbm6EL47pNOpq/Um2+ChoTyTaGimBU2PI3ultlk2uYKmFXoC5NVNVmtbep/J+1avyIg8uXyD5zX0xM6b5qfJQpijhqZaqbMzXUj1Y49Iq9X0V1ixA73Sq/7WbUlOD18pDZtbZZcVBA3LsU8K0/Kk0+Bb2Qkfa1aBpKu8JTUqwNTZEJWklPIAAABAIUyzoCuRTONBHVy5uxBa47oiav1ydeeyfFmQbIMX5fVTPXZLTakKvFa/IJ/W27dOPVnyqElXP4Z3+53X0BMqJ17j09Vb5JWaBv9WtAnvtOy2shSa9PDx8VnN0mYCrrwyFCY7d1T2WhMg68DLVd5LKuDSAeZgn+wcc5JlAAAAIHvTLOhyWrRsh4dcEws7XQ+1QibRGPlQGk90yVtD7uhqSA73d0lL3355I5MU7uY1Do96nxtTQdtbp4/4pobPR/iTIxs6S+GLH0j3cW+iiwErhbwryUWBxA50yM59+tjs4MumgruDOoPiUdONEQAAACisGfetWv2tWZbFi6Ny/jxVTwAAAAAolGnX0gUAAAAAxUTQBQAAAAAhIugCAAAAgBARdAEAAABAiAi6AAAAACBEBF0AAAAAECKCLgAAAAAIEUEXAAAAAISIoAsAAAAAQkTQBQAAAAAhIugCAAAAgBARdAEAAABAiAi6AAAAACBE0yzoWiDP1L4gn9a3yTPlZlXROfvwgnQvXmnWFcpEOD4AAAAAbrR0FVv5vfJQqb0YXbRCNtmLE4gJ3Go3yAqzBgAAAEDuCLqKbeRzOTRqL8b6T8q79iLyUimtr7ZJ59vqtq3GrPMXrV8nO15ttZ9r3Vplz7Z10rDEPCGAvZ2zjb3djs01EjWPAwAAAEEIuoruorze97Ks6nlZGs9/ZtYhHw3bmqWxytxJo2Fbq+zaUit1VRVmjVYh1Wtqpe2lVmkNCLyim53tzApLhdQ99rDsenUdgRcAAADSIuhCkvlyp+n+mLUlidagPZsrzcpw6YCobY3IwME+6TXrfKl9a1qjg61h6d23X1qeaDe3/dJ+fFitr5DGJp9WMrXd1sfMdgf3y05nuxc/kN5BtbqqVnaN0boGAACA6W3GfatWf2uWZfHiqJw/HzP3piI9XmmLPFk6JG+daJfXRxbIpnt+JE9FIvHWithQj+z84kM5ae6nKF8pzyxaLw+5txk9JW+e2i/vjpgVcU555m6SWP8+aTx/0dzzt2J+s+xatFyiaQKhxOvkeHyqjO4xyogb6pJVX/i30DVsa7MCINuwdL/YIR3nzN0w1G+Uzi1LRY5/IC1d82TPS7VSrZd/fto8wcU8d0AFTtsPXDYrHbp7om4tOyvtT7wnR8xazTkm/+1qZMfbD0tdMY4VAAAAk9b0bekqWyl7VYDyiisg0aKReukMSCKxYnGbfLq6SZ5M3qZ0ubyyWmcjXGDWFMame9qksybDYChZlseXUxnjack62aMDLlGBkl+QlZXLcsE39q2RB6wg8qx0pQRc2mk5cNBuJbvjDnsNAAAAkGyaBl0RebKmSR7ULUKn91njq/St5fQp++HSenl6vr0YN79ZOhdF1MKQHO7vkhazjbOdbh+MLvpRUqr2xPgt962lf8g8noYqTwdMujzvPvZYZYmckufNutTWsiyP79L++HNW9XTJYb1utMdzjPFbQCuXdqSrz+5ypwwcfD/Elp8a2aFbtXTAldQyFajnmHSrfat+bK1P0gwTXA0Oy3l7hW3JPLGGcR3/0lOGO4iNDVy1/lZVF6c7JQAAACaf6dvSNaqDlnZ5/VIiYDmpgo/nTTy0pNTdarVAnlm03Fo6fLpdtp7/zNM9T2/XaAU0EXkoUpjWrhWldiVel+fdxw9NWcvlkeTA0C2r4yuQc0dl93P2mKfUrniForsCOl36Mgy4LJel4zk9fmuutL3UZjIWqnOsbvbrifT++qgJaI07KlRgpwLIgSv2fas7YZvsco9Z+2pYBtSf6up59n0AAAAgyTQNuobkLT0Gy9xzO3PNpxXKmVtrtEfeuGSvSnHppNVCFK28t2jzWwUHTlke3yTiZCrs3ZfDGKol8+SBBXbmQjtjYbN0qltjlZ1cY3eP9VCw+rus4EwjyAIAAECmyF6YibJKu0tZab101r8gn/remuRB68mFcXLUbil6sKZZNrm7LJavlL01dqvbuVHfgUhTViJTYQYBUjKdSOMl3aJ1Vrpf1NkL98vOfbo7pB6TJVL1V/M83Qbd4gGW6aJoZTL8Xb7jyAAAADBdEHRNVPGugHaSjnhwt9oEd0Ndwa1uU1KNbLZSt+txWc2uSYrNzRrjpax52KzbKA3Ws7Ua2aGTbgz2yc7n3pOOczqgvSyxHt0dskNaXuyVYwv0nFvubRTTdTBBd1HU3Sc7EkFfShdEAAAAwIugKxPXVAVd/9Xp0v2SS7hvfWnSzWfN7groTeJvEnl84R1XVnCllbLMLE56plvgQN+ZpHNpnDstHb/ok4GqpdLmnnPr3BWxGrbW3OUNxlyi1XOtv4MDYY1hAwAAwGRH0JWJkc/l0Kj6G1mflJ0wRFb2QpG3TrwsjZ7ALjWRRzgq5a5sjzXUyZFPy+74hMY+txdV0KSfpufpstalJtlIOw7LtFh5nZaPj+u/S6XJ93ic1rez8nG23R0BAAAwbRB0ZeSivN5vZyd8cnWb7F28UlZ4ApIFsmlxs3TXN8smsyZfdvbCiNxZoGyImftM3rca2NSxLt+QNJ5MHef84P1paKqVOivHuu4C+Ii0pqRmHyc9X0qv/rvmYdmzrUainv2qlGi9M+dXajdBnQbfyk74WLMKJNW29moVYNaoANPOepicUh4AAABwm3HfqtXfmmVZvDgq58/7dsCaIhbIM7Vb5Ek9f9WJdnl9xKx20RMg6/m4Yv37Uua/ch4LNHrKyhro97pu6cqIK98g3avrA5M7aDFV3qH+I6608PkdX1zasnUqev/MiA3b2qxEFzad0j2HDIO50pMl63FduqXLb7Lk+o1WYJXamuVijflKShuv6AQeu8x4shQB2wAAAAAOWrqycPJ8u6w60SVvDQ15K9mjZpxV39gBV8ZGPpc3VTnpREuXy5M1W2Rvuvm6cjHyoTSq4zysjstNB3lvnT7iG3BpxZscOQc978n2F/dL+8GzMmD20TEweFa69+0PDJ5iBzo8mQ5tw9J78AMCLgAAAIxpmrV0TRamxUp6VCAXlJhjgWy6Z4s17ittqxUAAACAcUVL10RkJmOOXf48TcKMi5N+omMAAABgOiDomsCii34ke+cvkBXmvmNF+Up55h5nfNkpeZNWLgAAAGDConvhBLXpnhesroNpZZi4AwAAAMD4IeiawFbM3yBPL7pHlpRGPJkEnayFv7l0sQjzdQEAAADIB0EXAAAAAISIMV0AAAAAECKCLgAAAAAIEUEXAAAAAISIoAsAAAAAQkTQBQAAAAAhIugCAAAAgBARdAEAAABAiAi6AAAAACBETI6cswXyTO0WebJUJNbfJY3nPzPrw5JJec5zhuStE+3y+ohZPZbyDdK9ul6i5m7caI+09H0oJ81dAAAAANmjpStX5ffKQyoA0qKLVsgmezE8xS5vyqqU1lfbpPPVdalBJgAAABACgq5cjXwuh0btxVj/SXnXXgxPmOWNfCiNPS/LqvitSw6bhwAAAADkh6ArZxfl9T47SAm/a6FW7PIAAAAAFAJBF8bfknWyQ3f5e7tN9myuNCvDMk/uqDKLAAAAQBFMq0QaKxariv2iiBw+/bJsvWRWpnCSUZyS53v2m258iSQWfmL9+6Tx/EVzz88C2bS4QZ6qXC7R+GsMSWzoI9nZ/5mcTEl4kWt53kQav5GV8vTy9fJgacR+eHRIDvf/qzr2dPuqrZS99U3yYDaJNMpXyjOL1stDkUh8rFRs9JS8eUqdwzESejRsa5O2NeaODEv3ix3Scc7cLYT6jbLnB0ulOpNg6/gH0vLz0+aOLbq5VXY9Jon9WlIjrU11snZNhVTbT5EBtd1etZ316VFB5J6XaqV6sE92PnfUXuehx5U1S2NVmmP1K2PwrHT94j05UshzAwAAgNBNq5auk0NfWBXgBxdtkBX2qlTzG6xgJ9Z/pEDjplQAowKhVxa5Ay5NBSeRJulc3SZ7Fy8w6wrnzkUqwFytAicn4NLU8oM1W+TTe1aaFYWhg9lPVVlPugIuLVq6XF5Z/YJ0h3B82coo4MqADsA6X3pYGl3BkKaXC/VzRWAZVUul7aVitAYCAACgkKZZyvixU6pvuucFeSWSWcp1p+UsXUuX8xwZPSXPe1p9FsgKFeDtUsGYXB6rpcw2dnneFrLYUI+82f+hKVO3tv1IBX92EJa+tS+Llq75zfJpjToG0a1oH8kb5z+LP3+FemyXeiyqHkt7PnX3wp/USp0KjAYO7pftBy6bB8JQIzvefljqAluhUtktXRXSe/ys1K1ZKjJ4Vtp/cUyOnHP2s1KiSy5LzGmByqelq36jdG5RZciw9B7slQMHTOuZElWPbVWPVYfRGggAAIDQTLMxXRfl9f5T6m9Enlzk09pTvkGe0jHJ6BfymzECrmzFLh9J6mZ3UU5e2i+NfToxxtgBV7aswOwLJ+DSLsq759ulpX/IuvdgpBCtXSrI00Gjcvh0u2x1BVyadXyn7fP9UCRNa9e5o7L7ObVvT7SHHHDlRwdcOihseU538XPvpyvgyosKxn6gAy6R3n0dstsVcGmxnvdk+76zaqlC1t5PaxcAAMBkMf0SaVw6aadDj6TOdbUico/VPe5wf+EmBHa6NEYX/Uj2Ll4pK8rt9eEakkND/oGcsz9SNj+4i2WmnLnDRnvkjaBWM3O+o5X35l/eeDv+QbhB4ZJlslZ3gxzskwM99qoUPV9Kr/pTXbuMecYAAAAmiWmYvfAzecNq7Vkuj8y319gWyN9W6mauU/J+YLe7HOg5sE70yOHRiDy4SI/hekE+rVe3Wj2Wq1hBmI/SSllmFnNWVmlX/EvrpVMfk++tSR60njz5DQxcMUshucOM4aqqlV1vt1nZHFNvD0ud9WQAAABMFtMyZbxvQo2CJ9BwUYHXVj3H1ol98nz/KRWADUlMJ7UwQVj3PSr4Mk8FAAAAMLVMy6BLB0Fv6sau0nvkb01L06aInQwiqFteQYzocVX7VQDWLo09OgjrUgGYWFkMdxUrw5/TOjV6Wc5YK/Jw7bLdVXGoy5q0Oe0t09TzxVJVIYvN4oTx1bAM6L86bf0T9hi3wFuGSUAAAAAw/qZn0KW8O+RO8LBSHgkpgcaK+WlasUY+k61WYg8VeJV5+jrmKSJ3lplFj0Tii9jlz8cOgsbqgjjyuRxSQaNE1ssz+XSTLOrkyI65snCJWSy0c1dkUP8NCOyimx+RRr8U9ufOyDG94Zo6aQ1r3wAAAFB00zbokktH5C3dylR5r2yav8Iad1TIBBqW8g2yq6ZJOuvb7C6E5d7WrBXlK2WvlW5dBUHXCjmQTOTBGj0/livg05MXx9PJn5I302ZMvCR/0sGULJenkl5jkye4cmWDtOYb08doP2LTaeqbpbu+OSVpiVtDk50uXqt+7JGQA47T8vFx/bdCGn+yThrcZS2plIb6QgR9V+QrK+paKm3bahIJL9Trt26z08/7uywdv7azEza+1Co7NqttPedC7d/mjbLn7Y3SYNYAAABg4ptm83R5xefQspyS53v2ZzWeK6N5uuZvkKcX1cuDnomRk2QyH5aS+TxdQxIbjSRNxuzIbg6yFLor4RefmTu2wOc6Rk/JW6f2B5bZsK1N2taYO8WYg8qZR8vc9Tor7U+8J0fMPc2ZpyurOcTi822l0q/TVd2sjtn/WJ3yAg2ele5fvMc8XQAAAJPE9G3pUk6e/8hOH6+EkkBDOXnJTqLRclpnMLTnyHLEdDByel9GAVdWRr+QnVaZp1QZZp2iJ0t+PoOASztpzemltjf3LXp/h1Jb5PRz9fi0t4ZUsGfWWdTxHu7vUscXHHBpR7r6pNdqGdIByfvhBxPnjsr2Fz9QZQ6bFbYBHczsO+YJuHLW857s3HdWvaa5r+lJlV+05yI7P+At2y12oENa1P51HzdjvBxqf3sPfiA7nyPgAgAAmEymdUsXAAAAAIRtWrd0AQAAAEDYCLoAAAAAIEQEXQAAAAAQIoIuAAAAAAgRQRcAAAAAhIigCwAAAABCRNAFAAAAACEi6AIAAACAEBF0AQAAAECICLoAAAAAIEQEXQAAAAAQIoIuAAAAAAgRQRdQbEvWyZ5XN0qDuQsAmJyim1tlz7Yacw8Ags24b9Xqb82yLF4clfPnY+Ye0lsgz9RukSdLRWL9XdJ4/jOzvgDKN0j36nqJmrtxoz3S0vehnDR3MQnVb5Q9W5ZK9eBZaf/Fe3LknFmPEJRIa3OFNM69Jd3vXJGOIbN63Ey0/XFz9k1k4MQ3sv2TG2b9JBQplz2Pl0m1uRt39Zrs3D8ihf+Gm8jvazYCjqPo53Ny0UHXrscqRI5/IC0/P23WAkCqadzSpYOmF+TT2g2ywqzJSvm98pAKuLToohWyyV5MI8/ykJeSha/J99b+S+a3lS2qClJguoVLB1yiAq7nggIuXfGZL50/Vrfm8kTgffcce5267bjbrAuiK0nmuXvuz/QoTLnuMjOS63aYUCKzZK0KuLTq1bNohcU0k/v/u7EDHbLz4LDImodlz+ZKsxYAUtG9MFcjn8uhUXsx1n9S3rUXC2PkQ2nseVlWxW9dctg8hCIZvSA3zWJhVErrT2pVwDUs3S+qgMusTevqTZ9fkW/JV1fMYoDoXbPiv0pXR2cRDGFsQzfk2FV7ceDEjcyuz4lqaES2//KStMRv30iveQg5mG7nM4f/d3Xg1X5c/X/72CPSusSsBIAkBF05uyiv99lBUUG7FiIUNy88K38+9vee29DAoPXY9T9511u3Mx9ZjxVKdPMj0lilKrQH35eOULsUlshfR2daXX+6T9wSmTtL/jpiHgIC3ZSO/XalelJ3LQTGyZGff6CC0Qpp/Mk6fugC4GsaB13z5U7TPbA4il1eHpaskx2vtknn221TurtESamKgmRQbpkWy/DUyGbd53+wT/YeuGzWBbkpF0yLg8eVWzJgFtMy3cQGYjek48sbapuZsvauTLoYzpQ7TPey7OS6HQBMFHn+v2s5LQd0N8OqWtlcb1YBgMv0SqQxv1m6Fy2XaCbBz1CXrPrCacFKJM3wE+vfJ43nL5p7LjmXl2yl7K1vkgezSaRRvlKeWbReHopE4r+6xUZPyZun9su7I2ZFgIZtbdK2xtyxusN1hNg6E5XZy/5JyiuqxAkNbg7/SkYGOuV66bPyvTurZeQPz8p/XTMPGiWRFimvXiuzZ+vASRtU2x2zt0t6rr/1cvvap2W29MrXx16T62ZtED0mLFItiX0pU9vf1ZQo/7p6nS/V6/iVXb9ROrcslYGD+2X7mEGXOv+Pzpc29aYNnBiW7Z+YTo7xwew3pP2X3wR3/9JjEB6aJb2HLsnuP86SHT+eI3VBA97Vc/esmSXVmQRNsW+k5d9NC0iu27mp4LC1rlzWRmfGu0IOXL0hx45fk44/puvYWSLRu8tk65oSVf5Ms05VjGIjsleV4z3G5MQAJerczpEmd5mxa2q7NMkAAvaz6z/UexCYMMHZx8Q50uV09aoPXp1+bwudcEEd1/1l6rjc74k5J73qnKSU45wXczeJ57oLEFXXgPv4/CRex5QnznVYuPdh7OtFG+NzkLfwrjP/48v3fOZ7feZwPnP4HEXvnye7VktiX/xeQ/3/4ve5z+7zYMvr/12HHrf7Uq1Uk1QDgI9p19KVUQBUQMUuT1uxuE0+Xd0kT7oCLi1aulxeWf2CdC9eYNaMs7IWiaz9mdzuCri0koofyu3ff02tr1P3BuRmciATeVYid/7QFXBp6jWc7SIZdO4oW2iXOfzJmAGXZreK2ftiJeX4vgrY3OXPVreAYK/hr5aqf4fl2CdjB1za+au3rL+Dw67K1tBNFVYq6rHz1gp/DUtnqX9vyMd/1PfUX10bSdPFMF2lOZ1ct9MVotZH50nn43Ok0VV50qrVfjY+VBGcKERVunaoyuYuFVQmAi5NvU50juz68TxpDepKOc/eti25zGiZ7ApIAqIrfUH72fZ4UJISu0Js76NZpehy2h6fJ005n7cg5rhWJwdA5pyoMndknEwlMw3q/Us+voyo92yxeQ8zfx/yuF7GQ9bXWR7Hl+v5LOr1mevnyCvwNdTNG3Dl/nnI5//duHNn5JjeYM1dJKMBkGIap4zPofUoiQ5uOhdFglu6PPIpL4tt5zfLpzXL1cKQHO7/SN44/1n8+SvUY7vUY1H12Fsn2uX1oBYv3b3wJ7VSp2KKTFtnsue0NCnXfyVff5looSpRQdXtd9ap6oGiHhv6rNOV1CIq31n5MymfPSjX//Q/5esh53qNqu0eN9sN+raOeagyvqeee3PgpzJ0Yaxr3pQpal8GFqqAT203/IZ8PfCRCQijMltV9q/H98WtUlpfbZbGqrPS/kSGCTQ8rVVmnaksJX7d9qMqHPoX6KRWKf1aY7demG2zbg3Icjtnf6xfua/JEVWpselfp+eoypIOpvx+VTbl6EW1bbenBcD8sq0qWoN+5yxe+bol3Ye+iW+nW2t05VPznmvF7KfepvfEiBz4JPFrutXKox6r1q+X1CLg/FpubafK2u2UpSrHm/9G7b+1L4Vr6bJbA/QYPnXOPK0GidYMiY3dcqU5r5X2WnGdF++5LFfnJKhFIP/3IfvrxS3XaztTxT6+3MsrzPWZxfk0x2eVl8XnSHOux97YDamLqtewrnHvOYpGbnparvL6PJh9zf7/XS87hbyE3EMEwGREIo0pZYE8s0gHXCKHT7fLVlfApZ28tF8aT59SSxF5KJKmtevcUdn9XLu0PNEeUsAlMnuZCbhU8PJnFVS5u+XdHHpNhv5k8mMFZRG8fkxGPEFOzN7u2E/l67ECLqVktv176c3rmXyNLpKZ1s6uVUFdtQr2VKB2xgm4tFhAwKXNkzt0g9jgcGa/lMYFZMu66pdZy7h7lhWU9J51def74w0r09iEyWL4x29k5zuXZPt+XSFyv7M35cgnV6TdOrgSWZjUYhW9v9wEXLryk6hg2vS238j2d4a9FVo3XQn7parYubaLqX2xyxOpqnD/+q0qWrpypvQeuiK7XRVFTW+3/ZA+x0nj5SLl0mQqtLoS6VRotdjQDdm9f1i6/caNFIDuHubtpqWuE72f+3ViDN9PUE6i5jzp8+I9lyPmnMySB9K1PGX1Pig5Xi/jptjHl015Rb8+c/wcJdEBl/4hoMXnHAV1Fcz985DD/7u+KuSOO8wiABgEXVOJM3fYaI+8ccleleLSSSv9fLTy3vGbL6ysRcor1F/dijVGlsDrw8mPq+BKJ76Y/UO5fdl6KSmz1yaoAGiMgEvLKomG0xVxdpXc/NOzrta1kKjKQYuuSCVVGqzscn7jowxv10LH2F0Miy1eUYqUSMPd5bLj0Xmyp3meNReO/Sv8TLljnvUMw2Rk1JXF/0jza7OnQuamt1MVNnPPzelS5BExc1apAO9AUBDnF8zOM12fYiMFacXKRMxKlqL2Y/Uc2XG/2pcJ8B6nBBZxWb4PRvbXy3gp9vFlWV6xr89cP0fJYipYyvCHg7w+Dzn+v5ssNhDSLysAJj2CrqmkrNL+4iqtl876F+RT31uTPGg9efyUVKy1gpibV46qrzR/dkuUf1B0/cxP5evhQfU6T0vk+3oy49fk9oUqADOPj229zNJBn994MT+ldtCluyJ+XaTKdPZmyQPWmz9L2sxkns7NqbhllsUwfLor2g49EenjFdL2UJnU6XEanjFayZwMiTflQjHOv1M5nVsmu5LOZeJmujq6OK1AA2kq2AWn51B655r0Xp0pdaqiuetxs3+q0h5GEBYz413qHpojDe7X1mOLTJc2z5iYAsj+eplcinV8Rb8+c/wcJctqf4v8eQCAbBB0oeicVqYbw0FtFlGZPU8/JygoiqnA61n58x9UEDTQq6riVTK7WgVgVvAV+HtpQpZJNGZbCT3S7e8EYLoWpjMhuhha401UxdL6BfyG9J74RtrfGZad6qbniHK6RSELqqK5W/8ar85h+wl1TlUldUBV2p1K555HC/i+x7uu2UkQ4pXnx03lOfZNcKtGLqb69cLnofCK+XnwEc06wwyA6YKgq7RSlpnFogizvGuX7a5XOv18jz1xc+Atx+QhxWHGUF0PGM/luKaCrwt6HNffqwDsDbl+XQdf/yTfSelymMRpuRrtt++nFVVBov6bYatYiivylc5mVVUhi+0VobC7Ft6S7nfsCW69NzNWI5MuhqpyktN+ZrSd0xqi9vOQPUZDj/PQ4zRigV0D3Yo0dseZm0cnJEk5l0k3n8H149YKo86hHtu2e/8V2a737Z1vVIVTB9tzZGtBMxjaLQ/e+Yt0ooRvZGdK+u585Hu9THTjc3xFuz7z/BzlrWifBz/D8tVXZhEADIIuqZS7ys1iUeRR3lgB28jnckh3x4usl2fyOaaiTI5cJTN90+nrebtMko2UJBrr7XFc5p7HtY+sVq/g103IKYnGWAFgoMtywUpsOVcWLrFWhMB0Lbx6Q37r2/3upvw2pivKmXQxzDWwyWI7vZ+uQfwJ6jXMkpcZl6b2v/Fv/NO7WyIlhfkFe+iGHNNBarQ8OAW9D2c8iURn+aeLjhR+Iuno3Wl+tdfJEY7bY1EKVtG+e47VXVUH91ZFNn5LTZRQMFlfLwFy/UEhbIU6vjEU/Poc63zm+DnKR9E/Dykq5a9rdd/1q3KBzIUAkkzjoOszed+qoEbkyeUbZJM7SClfIJvmF3ouq3zKuyR/ssY2LZenFq9MJMAoX+l9Hbkor/fb2QmfXN0me/VzPY+rchY3S3d9s2wya/w0NNnp4rXqxx6R1gIHCzdHrZlPZPadz8psV6uUnvD49pV63i77fnISjZKFTTJbj+Naac/F5Qkf9GTF1WN1sLPllEQjKItiBo787qz6t0LW3h9SAGu6Fg7Egiu98QHmgV0MvYGNd7yOHuAfFKzlsN3cMtmqx1eYu7pyqdNH79GpmQNqTEd6r9kVRj0+pHmOtHpe12z/eIXsetQeV5Sfm9JhVc7UMVnz+qh99VQa1XHdr8r78Rxv5dWpZOqud2of3efC3r+xx69kJaLTtM+x5iezukyp8+2m04A746wKNY7HHhekKufFHB+Yw/XidUu+Mu9Lk/t11PnxXK/jJe/jy1DBrs9Mz2eOn6NcjcPnIcWSZbJWf70c/9I3wQmA6W0az9OllG+Q7tX1ri87t1PyfM9+edfc85PdPF1KHuU5ZaXQXQm/+MzcsQU+1zF6St46tT9wnq6GbW3StsbckeEQ5htxzdGV7HqvjFyplvJq8Z1rS09MHKk2EaGf4TfsdO7mbiqn7F75+thrY4/pymo+ryA1suPth6VusE92Pne04K0Bztw7KXMAeagKhzVoXXdBTM7QZahKy57H9VxLfnRqav9MadlsF59Hx89V9Vx1cvTEpr7HkrYcLfnYnPmMgo853dxUafdVU/urs8d5XjfdPqrn915VAXI0zXuQJZ2EYfMaMyYoSIbzU6U7F3Fjvge6Qqsq90nzqOX6PuR1vbgEvo57TrucFfv48riuC3R9ZnM+0x6jpspN+RwpgceQRiE/D7mw5+iqkN597bK7x6wEAGN6dy8c+VAaT3TJ4VHv//YxHZScPpI24MpJHuWdPN8uLf2nvF8Ueruh1Nzw+rmrVDlvDQ0lPV9PmNwlLX3BAZd2pKtPeu3GKBk4+H4IEzx+JF//4Q0ZGTaFaNf1ZMcqsPnsHZE0STRuXtAJNOxt3V/DN53t0wZcSpZJNLLrihjktBw4OCxSVStbC95d08lamJwqPlmiRSqwi6GV+UuPe/D+Cqwr0d2HrgX/cpvFdrFPrsjOQzfUY2aFZj3PHtNyRJ2mQLqcX9qD471ZmW/JgKrs7UxJ95wfva96HEh3zIxNcajjtMYvqf1NKc+cC71NQuL5Bwr8C7ueH0snDdipzrP/+R8ubAVz6IZ0eY4tVfXcWdL4UIXsSDdfV4byul5crNfR1425b9Gvc7aw70e2CnV8GSvQ9ZnN+czpc5Sjon8ePGpkswq4ZLBPDhBwAfAxvVu6MAGZlig9h9dnnekDqEmlUlpfbZbGqjBaDoFiMC0skq6loEQaHq2wWl6zaaEAJju7hwj/vwMIRiINTCwFGEM1MV2Wjl/0yYCoSutLGwszhgEopog92W26sYN6HE+6iYCBqUh3K9Rd8sPpGQJgqiDowsSSVTr3SebcUdm+76wKvJZK26sEXpicqlfPkR13p2aK1IkKWh91xu/ckC5auTANOOO45PgHsv3AZbMWAFLRvRATip0owz+JxpSxZJ3s+UmFdP3iPTnCr6KYRJykLWnpsTM+iRGAqUgHXVure2X7z0+bNQDgj6ALE0hUvrPyZ1I+O8PMggCKzs4QN0uq5s70ZMFzshbqOaf4FgEAwIugCwAAAABCxJguAAAAAAgRQRcAAAAAhIigCwAAAABCRNAFAAAAACEi6AIAAACAEBF0AQAAAECICLoAAAAAIEQEXQAAAAAQIoIuAAAAAAgRQRcAAAAAhIigCwAAAABCRNAFAAAAACEi6AIAAACAEBF0AQAAAECICLoAAAAAIEQEXQAAAAAQIoIuAAAAAAgRQRcAAAAAhIigCwAAAABCRNAFAAAAACEi6AIAAACAEBF0AQAAAECICLoAAAAAIEQEXQAAAAAQIoIuAAAAAAgRQRcAAAAAhIigCwAAAABCRNAFAAAAACEi6AIAAACAEBF0AQAAAECICLoAAAAAIEQEXQAAAAAQIoIuAAAAAAgRQRcAAAAAhIigCwAAAABCRNAFAAAAACEi6AIAAACAEBF0AQAAAECICLoAAAAAIEQz7lu1+luzLIsXR+X8+Zi5B4Tku7fJqn+4TUrN3bgrf5Hf/++/yDVzd2KqlIbNa6WpdqlUV5lVclban3hPjph7AAAAgNu0C7oqm0pk2TJzJ8nolW9l9Ohf5KvPv51AFf8ZsugfZ8pCmQwBSYYmcdDVsK1N2taYO3EEXQAAAAhG0OVnQlX+p2DQlWKG1Pz3mTJvwgddldL6arM0Von07tsvu3sum/UAAABAsGk7puvKv92Uo//Dfbslv/+3v8iofnDebXL3+hnW84AUg31ygIALAAAAGSKRRty3cu3zv8in/2Y3/JVGrD8TQuk8swAAAABg0pm23Qt1S9fpz81KN2e8UVBXt+/OkEX/7TaZt2xGfEySHgt24de35PJ/mhW+ZkjZvbfJ3et0EOW0on0ro2f+In/sShpDdu9MWbVOvX4mwdaZW3JUbZ8iYD+vHP2L9H+e/PzkLowz1Hm6TRa6t7X2M7jrX5na57vH2OfRj2/Jpx/57Gsu3Qtzfh/yY43pWtAnO587KqScAQAAQCZo6UpSttxU4lUFPrnyX7Z+pqz7BxWcuCr6mg6ilv1DiawK6pKoAoQaFdTc93c6KHE/R91fptargGPRd80qI/fWLRWMNAXv58K/myk195oVydTjZWZflyVvu+w2ue8fb5Myc9+tUpVnH5tZEbKc34dCqaqQxWYRAAAAGAstXXEzpHL9bbLwAbsin/L4vaqirwIL3Tp15eO/yFcfJYIyq5VHBx3qsQv/55b0e1paTCuOXtQtMZ6WpkSZo0Etb872mbYCmf20W33+Ipf/01vWMlWWPoYz/+OWJEYlmZaueNCktv23xH7q49NBlZbuvHi3uU2dE52hMLksP1kcY87vQ2HY2QvJVggAAIDMTduWrnl/VyLr/rv7NtMKSHTANXrmVkpAtmidE3Sox1wVfe3a57fMWLAZMm+5/TxHmQp07IBLBxQqEPB07ftWLn+ktlUBgn/AlQO1L7//PzflU1VWIuDS7LLOnLHvlSa1rMWpYE0HSe791McX3y6SdHxm7Js+L95tnPFx6pwEtaxlLff3IX+VEt28UZp0uvjBYTlvrwQAAADGRPdCl1EVGJ1RAdCnyWOkvqsq8TpyUo9/FRQcqSDjivpTevcMVxe8GRJR961WoF+nacHxBEf5u+a08Kj9rrz3Nqlpmimr/nGmFVza6fJVcFlpPSOJ3k//VqlrQ7nvY3KglrOc34c8LFkne95uk863m2XXY0ulevCsdP+C8VwAAADIHCnj1e33H9sBRemVb5Nah4xKuwVMp5K/z9M65r6ZLoRJnHFOoyEmd0imu/bV/KPap3+YKcv+ziSb8IwlK5xrQ/bfeX83UyrdrWd6bJjpkjiaR8Dmkcf7UCgD6nbBXgQAAAAyQkuXcu0ju3VElt2WktBi0rHGX6lAy2oR0uOeblmtd79XNx1gOt0ECybe9dBOYhEPflTAZwU/Z24Ft0pNBueOyvYn2qXlif3SfnBYqquWSttP1knUPAwAAACMhaDL8q18ZbV2zZCFP/DJ0Hf5W3vSZJ2ePT6ZcsAtIBFE4BiqTOnMgmYxmNO6pJNaqH393/a4J916d63AXRi97Ne2zlGcHfD9Pjkdfj4K8D7k7rIcOdAh7cfVItkLAQAAkAWCLkO3dl3QzV3zbpM7khM/qIDlin4s65YwtZ1pBfIN5hzfzWz8UcaB25VvZciTsMNhuucV0r06vbzIBZ28wxP4pCa6GNNYgWXO7wMAAAAwfgi64r6V/qN2oDJvXXKA5Dymgqd/mCk161Vw4Kn063TsM2XVf58pyfkpLv/ff7FbZ/Q4pH+cKYvudY+tUq+jgpZV6jXvawoac+UN3JLHTVV6Xs9QZd2t99HcjZej08JbiTQKx85eqIK5PLMFjlr9O9UxuvdbH5/nPOf+PgAAAADjhXm6PBLzVY1+fEs+/cjbWqQn5b3PmucqgDU3ls/8UN+9TQVWes6qIGPMK5V2e+88WGn3UaeD/6NYqfG9x+8cd/B+OK+bcl7GPDYdUKnA0TM/WarA/dZdCZOySeb8PuStUlpfbZZG6ZOdz5HBEAAAAJmhpcsj0dpV+sBtKa0l1z5SAYAKSi6cMWOLHDqo0OOX9DxcfhX9//yLfKoCozMfq+2sFh2Huq+Cit/rebHSBQh6e1XuFVWOmzUB8r/9xZPiXe/j7/8tqRzrefYYr8sm22DB/Kd6bXU+0tGZExf+3UypSTNfl7Xf+vyY+xa936fNskvO7wMAAAAwDqZdSxcKybSQiZ74OShxxQypbLLHffm1Hk4utHQBAAAge7R0IXdmsuLRP6ZLmKEeK9Q8XRNFVa1srmfUGAAAADJD0IW86a6YNfe6E3fYylRQtqjJGX/1rVyY1K1c2mX5bd+wtVS3pVk6324zt43SYK0FAAAAUtG9EHlxEpOkpcdmhZLYYnxEN2+UrbVLpbrKrJCz0v7Ee3LE3AMAAADcCLqQt7J7b5M71s2wEma4sxg6WQv1nGGFnagYAAAAmDwIugAAAAAgRIzpAgAAAIAQTaugS7fkAQAAAEAx0dIFAAAAACEi6AIAAACAEBF0AQAAAECICLoAAAAAIEQEXQAAAAAQIoIuAAAAAAgRQRcCLJBnal+QT+tfkO7FK826bDmv0SbPlJtVeSn06wEAAADhI+iCv/J75aFSezG6aIVsshdDYAKp2g2ywqwBAAAAphKCLvgb+VwOjdqLsf6T8q69iKxUSsO2Vtnzdpt0OrdXW2VHfaV5PFi0fp3seNW13dtqu801Mtb03rluBwAAgPAQdCHARXm972VZ1fOyNJ7/zKxDxpbUqOCnWdrWVEi1WWWpqpC6Lc3Sua3GrEgV3dwqu7bUSl2VWWFR2z32sOx6dV1gAJXrdgAAAAgXQRfG2Xy503RjLJolidagPZvHbnXKmnr9PS89rIKfYek9+IHsfKJdWsxt576zMqCfs+Zh2VFvPdtLbbv1sQq1oLfdn9j2xQ+kd1CtrqqVXX4BW67bAQAAIHQz7lu1+luzLIsXR+X8+Zi5N/VM5ePbdM8L8kpE5PDpl2XrJbNSK19gjZU6OXLRvm/Yzx+St060y+sjelzVFnkyIPiJ9e+TxvPe7b1UGfMbZNei5RI1rxEb6pE3+z8UWeQux35M5jdLt+u5aQ11yaovnJY2Zz8T+73pnh/JU5FIvBVHl7vziw/lpLnvp2Fbm7StMXdUkNL9Yod0nDN3CyS6eaP89Sfv+b9u/Ubp3LJU5PgH0vLz02alzdm3ARU4bT9w2ax11MiOt1Uw57PPuW4HAACA8NHSNUWcuTZk/V1SusD6a1NByvIt0rl6i3Qv9q6/q0z9Gf1CfuMEQjmzA6HOGm8QFY3Uyyur2+QpXY6PjAKudMpWyl5V7iuugEvT5XZOgKQcsQMBAZf21bDd2pWiRh6wgsGz0pUSOGmn5cDBYfW3Qu64w15jy3U7AAAAFANB1xRxctSubEfL5lt/Le4MhH7rr10yLUKJ8VvuW0u/Hcils+kep4VsSA6f3pfY9kSXHB5VAZFfcHVpv6sc9Ty9brRHWuLrXLd4K5dbRJ6saZIHdYuXu8zTp+yHS+vladfhJjvS1Wd3uVMGDr5f/JafO+xxXgMDV+z7jiXzxBqOdfxLOWKtsLmDytjAVetvVbWrW2Su2wEAAKAoCLqmiksn7eBFBVfxVp6ySlXxPiWHdeyUsl5VxFXQlZfyDfJURC/Y3f22Xkp0QTw58pls7dsnb5kMiAU3ekqe72mX191lqmDueRMnelv8kpw7Krufs8c8pXbFC1ultP5gqfrr0yqVEozpboFtsss99sy0klVXz7Pva7luBwAAgKIg6JoyLsmfdIBTWinL7BWyKbJcBSeX5X3d9bD0HvlbM6HwCvUc7dxounFaGTDBmwx9lBivVRQqyDu13zeNvdPNcqJq2NYsjVUivfve87RK+aq/S+rMYlbBUq7bAQAAIBQEXVPGRfnymv67XB6xutaZcVvXLsm7VtfDiNxpxlctK9PNU6fk/TwbupzgLe8Ws2lCp3S3kl0c/0B295iVPuKBUs8x6ba6QQ5L7++8CTf85LodAAAAwkXQNYV4k2nYqditgOjaZdE5G+31K+URHXOpQOyM+oPisObQ0indVcC1PSljYVxKgo3L0mF1g+xIBGl+48Fy3Q4AAABFQdA1hZwc+sIKrqykGfNXyINq2epCOPK5HBpV6yvvlRXl82WJfnI8iUb+PEk6cuXqFjm1VErDNjvg0i1cySniPc5dEauBas1d0mCtSBWtnmv9HRxwjQfLdTsAAAAUBUHXVDJySaxEfCoI2mR1/XO6EJquhzqwKVQSDcUJ8iSyQjZZa5KoAC/ziY8r5S4z5ix0YU+OHFcpra82S9saFXDp+bPSBVyW0/Lxcf13qTT57leNbLYmQD4rH3u6J+a6HQAAAIqBoGtKSSTTeESP23J1IXx3SKdTV+tNtsFDQ3km0dBMC5oeR/ZKbbNscgVNK/QEyKubrNa29D6T961ekRF5cvkGz2voiZ03zU+ThTBHDU21UmflWBepfuwRabWa/gpsSY0K7HTSjGHp3ec3YbE/nc7eyjL4WLMKCGsSad+t19MTHCtJqeG1XLcDAABA+Gbct2r1t2ZZFi+OyvnzVtvFlDTVj0/bdM8L8ooVWClDXYl5rso3qCCo3lTGdbp1/+x/bisWt0nnoojE+vdJ4/mAIM3zuklGT8nha8vlwYidUj4ww2G61/Dsqz0R85N6fq6A18tknxu2tVkJLWzD0v1iR2Hn6lqyTva8VGuNoRqL1QKWFJDFx3/5GeyTnc8dtVsYk+S6HQAAAMJFS9cUY7do2Q4PuSYWdroeaoVMojHyoTSe6JK3htyp2ofkcH+XtPTtlzcySeFuXuPwqPe5MRW0vXX6yJjBYbZCnxzZJK3IVexAh+zcp/dx2KzRhqX34AdpA6dctwMAAEC4aOkCAAAAgBDR0gUAAAAAISLoAgAAAIAQEXQBAAAAQIgIugAAAAAgRARdAAAAABAigi4AAAAACBFBFwAAAACEiKALAAAAAEJE0AUAAAAAISLoAgAAAIAQEXQBAAAAQIgIugAAAAAgRARdAAAAABAigq4pZYE8U/uCfFrfJs+Um1VF5+zDC9K9eKVZVygT4fgAAACA7BB0obDK75WHSu3F6KIVsslenEBM4Fa7QVaYNQAAAECYCLpQWCOfy6FRezHWf1LetReRlUpp2NYqe95uk07n9mqr7KivNI8Hi9avkx2vurZ7W223uUai5vEguW4HAACAsRF0ocAuyut9L8uqnpel8fxnZh0ytqRGBT/N0ramQqrNKktVhdRtaZbObTVmRaro5lbZtaVW6qrMCova7rGHZder6wIDqFy3AwAAQGYIujDNzJc7TffHrC1JtAbt2Tx2q1PW1OvveelhFfwMS+/BD2TnE+3SYm47952VAf2cNQ/Ljnrr2V5q262PVagFve3+xLYvfiC9g2p1Va3s8gvYct0OAAAAGZtx36rV35plWbw4KufPx8y9qWeqH589XmmLPFk6JG+daJfXRxbIpnt+JE9FIvHWithQj+z84kM5ae6nKF8pzyxaLw+5txk9JW+e2i/vjpgVcU555m6SWP8+aTx/0dzzt2J+s+xatFyiaQKhxOvkeHyqjO4xyogb6pJVX/i30DVsa5O2NeaOClK6X+yQjnPmboFEN2+Uv/7kPf/Xrd8onVuWihz/QFp+ftqstDn7NqACp+0HLpu1jhrZ8bYK5nz2OdftAAAAkDlauqaqspWyVwUor7gCEi0aqZfOgCQSKxa3yaerm+TJ5G1Kl8srq3U2wgVmTWFsuqdNOmsyDIaSZXl8OZUxDmIHAgIu7athu7UrRY08YAWDZ6UrJXDSTsuBg8Pqb4XccYe9xpbrdgAAAMgGQdeUFJEna5rkQd0idHqfNb5K31pOn7IfLq2Xp+fbi3Hzm6VzUUQtDMnh/i5pMds42+n2weiiHyWlak+M33LfWvqHzONpqPJ0wKTL8+5jj1WWyCl53qxLbS3L8vgu7Y8/Z1VPlxzW60Z7PMcYvwW0cmlHuvrsLnfKwMH3i9/yc4c9zmtg4Ip937FknljDsY5/KUesFTZ3MBobuGr9rap2dYvMdTsAAABkhaBrqhrVQUu7vH4pEbCcVMHH8yYeWlLqbrVaIM8sWm4tHT7dLlvPf+bpnqe3a7QCmog8FClMa9eKUrsSr8vz7uOHpqzl8khyYOiW1fEVyLmjsvs5e8xTale8sFVK6w+Wqr8+rVIpwZjuFtgmu9xjz0wrWXX1PPu+lut2AAAAyApB15Q0JG/pMVjmntuZaz6tUM7cWqM98sYle1WKSyetFqJo5b1Fm98qOHDK8vimgIZtzdJYJdK77z1Pq5Sv+rukzixmFSzluh0AAADSIuiCSFml3aWstF4661+QT31vTfKg9eTCODlqt9Y8WNMsm9xdFstXyt4au9Xt3Ghyt8LpSad0t5JdHP9AdveYlT7igVLPMem2ukEOS+/vvAk3/OS6HQAAADJD0IXxEe8KaCfpiAd3q01wN9QV3Oo2jVhzaOmU7irg2p6UsTAuJcHGZemwukF2JII0v/FguW4HAACArBB0QeTaZTt5hU6X7pdcwn3rS5NuPmt2V0BvEn+TyOML77iygiutlGVmcWKqlIZtdsClW7iSU8R7nLsiVgPVmrukwVqRKlo91/o7OOAaD5brdgAAAMgKQRdERj6XQ6Pqb2R9UnbCEFnZC0XeOvGyNHoCu9REHuGolLuyPdawJ0eOq5TWV5ulbY0KuPT8WekCLstp+fi4/rtUmnz3q0Y2WxMgn5WPPd0Tc90OAAAA2SDognJRXu+3sxM+ubpN9i5eKSs8AckC2bS4Wbrrm2WTWZMvO3thRO4sUDbEzH0m71sNbOpYl29IGk+mjnN+8P40NNVKnZVjXaT6sUekdYm9XFBLalRgp5NmDEvvPr8Ji/3pdPZWlsHHmlVAWJNI+269np7gWElKDa/luh0AAAAyN+O+Vau/NcuyeHFUzp/3dvaaSqb68Vmp32u3yJN6/qoT7fL6iFntoidA1vNxxfr3pcx/5TwWaPSUlTXQ73Xd0pURV75BulfXe+aEShZT5R3qP+JKC5/f8cWlLVunovfPjNiwrc1KaGEblu4XOwo7V9eSdbLnpVprDNVYrBawpIAsPv7Lz2Cf7HzuaFJXTluu2wEAACAztHQh7uT5dll1okveGhryVrJHzTirvrEDroyNfC5vqnLSiZYulydrtsjedPN15WLkQ2lUx3lYHZebDvLeOn3EN+DSQp8c2SStyFXsQIfs3Kf3cdis0Yal9+AHaQOnXLcDAABAZmjpwjgwLVbSowK5oMQcC2TTPVuscV9pW60AAACACY6WLhSfmYw5dvnzNAkzLk7ZiY4BAAAwvRB0YdxEF/1I9s5fICvMfceK8pXyzD3O+LJT8iatXAAAAJjE6F6IcbHpnhesroNpZZi4AwAAAJjIaOnCuHj3i5el5XSPlcwiOQy2E1rsK2ziDgAAAGCc0NIFAAAAACGipQsAAAAAQkTQBQAAAAAhIugCAAAAgBARdAEAAABAiAi6AAAAACBEBF0AAAAAECKCLgAAAAAIEUEXAAAAAISIyZGRu/IN0r26XqLmbtxoj7T0fSgnzV0AAABgOqOlCwhFibQ2z5fOH6tbc3kiML17jr1O3XbcbdYhA5xPAAAweRF0IXcjH0pjz8uyKn7rksPmIbhcvSmp7au35KsrZhHZ4XwCAIBJhqALAAAAAEJE0IXpZ8k62fFqm3S+3SZ7NlealYV2Uy5cNYtuV27JgFlENjifAABg8iKRxpS1QFbMb5BdiyolWhox64YkNvSR7Pzis8AkFyvmb5CnF9XLg6VmRQbbJKyUvfVN8mAWiTRyKW/FYhUwLRJ560S7vD6iVpSvlGcWrZeHIpH4WJ/YUFfgazRsa5O2NeaODEv3ix3Scc7cLaCGR+dLm9qhgRPDsv2Tm/bKSLnsebxMquWGtP/yGzlir00RvXuObF0zS6rnmhU+PK+rRO+fJ7tWi3S/c0U6htSKyCxprSuXtdGZqjzbQOwb2fvvN1K75/k99+oN6foPtY/6tYJktZ0el1UhjXJNdu4fUftQos7RHGny7N81tX/6sVT5nE8AAIDxREvXVKSCkL21W6SzZrkr4NJUUBJpks76Nnmm3KyKWyDP1L6gtnEHQFq6bfJRmPJ0APbp6iZ50hVwaXo5k6AvTOev3rL+Dg4nAiMZuimD+q967Ly1IlXDoyp4eih9wDUWHYB1Pj5HGl0BjaaXkwOawOfOnSVtj8+XPfeXmDVeuW4nc2fKYhWs7VABWFvyttEy2eVOlOGS6/kEAAAYbwRdU44KuFQQYgUyo6fkrdP7XIku9snz/adUpTsid5bZz3asWPwjedIKfobksHubE13y1qheH5EnVzfLJr1YAPmXp45hUbN0LlJBpTrO5094j7Ol/zPzvFRHuvqk16qpiwwcfD+UVi4t5g4O4m7JV37d5Bx3z7ECEf287kPD0vLLS9Zt56FrphudbtGx17lbuRJmyh11c2TXavUaV9Vz30m8Rssvh2Vn7w3zPEOVZz1Xldd74hvZGX+uLvOGVWb16jnS6o7dtVy3s+igbI7UzU0+RrNvc8tks08mwpzOJwAAwARA0DXFrFi8Xh7UC1YXv/3y+qWL1nrbRXn3/H5pVAHK1ktmlVa+QXbp4EUFQLrL3lb3NiOfyet9+0wgtFyeWrzAWp2XApX3YGS5xPpVsKWO890R73Ge1N0Og5w7Krufa5eWJ9pl+4HLZmVYArLq+WbgE4lW2K1DvYeuSMcfE0FG7I8jst0KSmbJA2OkRq+LzrK64LXs11383IGKKtPT5a9EWtfMspZ0ebs/8XY7jP3xG1PmTFl7l7vVKtftXHRA+MvkY/xG2s0LVZnzkCq78wkAADAREHRNKQvkbytNMHMqzZgqT4CilFXa3bmGPrLHSKW4KK/3n7KWopX3ygprKQ+FKm+oSxrPJx3LRKKCiBYdWHgCnZvSsf+StPx7UotTFoIDEiOmgh7fVrAkkVmyVndhvHpNDvzRXpXijzekV/2pVoFcvMtfrtvF3ZJuPebL3HNzuhD6Cul8AgAAhI2ga0qZL3daXfYuy5fpWnqSrCi1M/jFrrmbv5Jcu2y3JKjnLrNW5K5Q5aXdfpJyutDVPTRHGtxd8/QYqIfs1iXPmCYfA+kCF7d5ZjzV3DLZZSYYTr3NkTrryS65bgcAADBNEXQBE0m8i52djCIexOgxUHp17Jvg1iUAAABMSARdU1Kl3JVDpsFo2Xyz5MPpEjh6Wc5YK/JX7PImD7ulyjv/lElY4ZfuPVfOHFcqkHOSWQTerBTvRq7bAQAATFMEXVPKZ/K+Nd4lIk8u3xA8Fqp8geexk0Nf2BXjyPqANO0L5JlFy62l2OXPx07FPkYXxIKXl62iTI6cIyt7oZ5r65Js9wQwqQkr8jZ0Q47pzH/R8oAsgwFy3Q4AAGCaIuiaYt7t77Er5qX10lnbLM/Md2f/0xMmN0v36i3Sec9Ks04Z+VDedIK11W2y172Nnni4dotJ735K3kybuOKS/CmedXBlIrBTr7HJHVwVrLzcNDTVSl2VvVz92CPSusRengjs7IUz5Y6grH8FdVM6jttZBhsfnyc77p8lUU8QVSIN98+RPT+eIw1mjS3X7QAAAKanGfetWv2tWZbFi6Ny/vzU7Qw01Y8vrnyDCqzqfbLGOexU7d7MgXqyYifY8eO3TSo9WbE1d1ayoS5Z9YV77qzcy3PK0Onic8le2LCtTdrWmDsyLN0vdoQ2V1fWIuWy5/Eyz4TByQau3pBjx6950q1rerJiPXeWThefUfZCw9kukCpPZxv0Zg3MZbsSaW2ukEY9P9c7yVkIbbkeAwAAwERGS9dUNPKhNDoTIVstT44hiangp6XHL5i5KK/3vSwtp3vkcMbbpDp5vl1arAmYXfQkzUPJmQYLU14uijU5ck6GbkhXLH32weq5s6TxoQrZMcZ8XZmKfXJFWt75RrpVuZ5xZFfNOLL9qQGXlut2AAAA0w0tXcCEYVqC5JoKWIISUJRIw6MV1rgvWoMAAAAmB1q6gInCTDo8EEuXMONm+gmEAQAAMOEQdAETTPXqObLj7pKUMXlRFZS1PuqMo7ohXbRyAQAATAp0LwQmkIZH51tdB9MKSGwBAACAiYmWLmACOfLvl2TnoWvSezUpOYWisxZ2HxomQQUAAMAkQ0sXAAAAAISIli4AAAAACBFBFwAAAACEiKALAAAAAEJE0AUAAAAAISLoAgAAAIAQEXQBAAAAQIgIugAAAAAgRARdAAAAABAiJkfGOFggz9RukSdLh+StE+3y+ohZPd2Vb5Du1fUSNXfjRnukpe9DOWnuhm3F/A3y9KJ75MHSiFkjEhs9JYf6j8jrly6aNUCGlqyTPS/VSrW5GzfYJzufOyrF+h85Wr9ONv9gqdRVVZg1IgODZ+XYr49JR89lswYAgHDQ0gUgYX6zdNbUewIuLVq6XJ6MzDf33HQA/YJ8WrtBVpg1mHyim1ul8+2N0mDuTzn1G2XXllpPwKVVVy2Vxr+aZ+65VUrrq23S+eq61B9BAADIAUEXMFGMfCiNPS/LqvitSw6bh4pjpeytWW4txfq7pMW9Lyf2yfP9l6zHMNVUyl/XqmBkcFjOmzUFde6obH+iXVritw+k1zxUHDWyY8tSa2ng4Aey070vL+6X9q4r1mMAAISJoAuArXy+LNF/R3tk5/nPvN0ZRy7Ku+qGqWie3FGl/ly8UrSufkW1ZJ7ow9PdGfceOO09xnOX5Yi6AQAQNoIuAHmYL3eWmsVsLVknO3QXrrfbZM/mSrMSRVd/l9SpP72/O23fh2ICUQAACoREGlNV+Up5ZtF6eSgSiY9JCE6GYBJbiJOwYYFsuudH8pR726Ee2flFumQOC2TF/AbZtahSovHxQENqu4/UdkmtJimJNLIvz072oMcemRWBZSWsWKwq+IskkbzD7xwNdfnu76bFDfJU5XJ1bGaVU16/em5oiUBWyt76Jnkwm0QaAe/7m6f2y7s++7licbN6z9RxmfuB1HlZpc6LZX6zdOttMgm23NsladjWJm1rzB0Zlu4XO6TjnLlbMHpsTrM0XvxAWn5+2iRT0GN77Ed1IoWuX7wnRwLLrVT7+Yg0ramIJ4IYON4nXV1H5cgdG6Vzy1zf/dZjpHY9JonHltTIjp/UJcYUqXLbA8qN1m+UrT9YKtXxSv+w9B7slQPJrTQW7/FZ+7t5rTQ9pra3n6D29wPZqx5LbKv25VXXvqSl9vMJtZ/mXmGo8t9+WOqySaShzl9rU52sdb8Pad676GZ1Dl3nIJA6N/Z5U9R53+M572m4twMAIAO0dE05KqC5p00+Xd0kT7oq3pqVDKFmi+z1y4eglVbKMlVp36sColeSt43US2dQsgSzTWeNroi7EzCo14g0SWd9mzxTblYlK8u2PDtxg53swayyZFCWiw7AfM+RunmDG7N/KUGGKW91m+xdvMCsG1+Bx6Te91dWvyDdvvupgmSzlI2MAq6JYMkyWasq0QMyT1q3qUDISqZgHlN0IoW2l1ql1epXmURn3Xu7WQWGiYq+Vr2m1tpmx1/pcUJX5YJPpX9xtQ5o7MesJBUvqSDDHeTofUjZTgdDbWofkyv+FVL32MOyyy+pg3N8A1cS+5sUbFSveVi2ulsSdXe7jAIuJaxxXllwzl9j8vtgvXdBraRzxw64fGQUcAEAkANauqaa+c3yqQp+7NaNI65xOLq15kcqeNBB0Sl5vme/vGs/oDgtT+auDMlbp/813iK2wspoZydYOHz6ZdnqyadgWmP0oirzLU9LmmkhUgHLOc92uZdnt1bpYxhSj/2resyUpVt4lquAw3rN5OOzOdseHjolD0bU66v9fT7pHK0ov+hpuYqXZz3X3VrktOyp17m8TxrPO69RSObcZtLSZd5367z0fyRvuMZk6fO5SwfE+jynS9HvpKzPKkV9FvuYTHcv/IkdBA0c3C/bD4QwtqZet0bZSRSsFqN978uBnst264rV+qSDIbWc0nJhWmP04mCftP/iaLxFxWqJ0oGRvuPbWmNan0Q99usKK4iyWpu6TkvMeo1KaagXOeJJU+6UZ1q1PnGeq+hWHrWfjWo/e/e1y+4es14zxzeggiNRgVS11YJ2zIxT0q10OmhUi4EtMzm0OuUtizLj719qa1/ifRijldRJWZ/VMY7HeQEATGW0dE01l/ZLy4mXpbFPBwjuQOCivHu+XZ4f0suVcldQa5AOLnpUxdzVBfGkek17O1V/KfW2lqxYvN4EXLrSvT+p66Iuc780ntiXFKi5ZFOeCgp2mYBLBw/xgEsb+Uxe79snb43qO8vlqTStTzrgivXvk1U+5yioq2Dssg7OzB2Leq7az8Y+da5DCbiyoYJYHfwph0+r85KUBMPaz9On1FJEHopMjFY5y7mjsvs5O4tcKAGXEq2eay/oyvMTHSpgMQGXdu607P5Fnwzo5QXzPK1IDdtMwKWDFVXpdndhi/W8J9v3nbXv+CafcMYDLVVBwVwVKKmAUnfvi7/G5aSAyylPBUwqeNitAwt3AKH2s8PsZ1W1t1XHOb5q3XKlAteW53R3O+e1VTld5viCOEkmJmQSDRW8/sAOmHv3mfNi3bMl3ocKWXs/YwIBABMbQdcUFA8cyhfIpvkbZO89bdJd2yaf1r8gr1i9/yJyZ5n1jCQqmNGtOeae25lrJgryWCB/W2mCoFNpWjkCs95lWV6Z6Qo39FFAa81Feb1fBxeqMlp5b/C8UUNdGQdKJ4e+sCp60UU/kr2LV8qKDLouFl35vfKQbuFTge8bQcHtpZNW+vm052UKsrv5DUv3LwJaK85dkUGzGLdknTTp1iEdqI0xbsc3+YQTyKhAaFAHC2NOvFsjD1hj2+zucjqxSMrNb3JhxT4+HZSkbym0uh/6ucPusjchk2iYrpP6fTjgbt1z6/nSSj9fXbssp26yAAAUC0HXFKSTTOzVE9au3iKv6LFPeoxP0mS3heFkrrssXwZ1WSugFaX2r9mxa0GRhXLNtGTo8WnWilRpt0+m58460SOHRyPy4CI9hkudVxW8fqqC2AkThDnBaGm9dOp9872ZLqDTSqUstBr2/MddBYneb3cdHOg7E9j6Y7cwDctXX9n3PUwgo7tMeroCBjHZA7PnHN9Z+TggsHOOZXDA//EGa1xawHGMN3MepapWdvkFotbNtEgCADDBEXRNNdZ4KJNkYvSUHO7vkudP7JMWddOT3Drd9pAFFXht7XMmCFbndHRIYiqIdYKw7ntU8GWeionEdPM7/mVw9j2f7nVO69ixT4JajsxkwgHBnBPIBG/v5XQR1OO14pP2Bty8rVnm+NIku3COxT+oyi0oBQAA2SPomlJWyl6TTOGt0/aYJT2+R49bOhnYxa8Q0owRC0G0LCj9ouK0+oxeljPWigJS51CPUdva1y6NKoBddaJLBWBqfyJNsms8Mxg6rXs6Pbver3S3bJNdZCpNy+K4MS1IgV3rlIYmu9tedt3r0gU7uQcyyeO1xuS0kAWOxxprXzIISsfTV8P2eDQ9rs4nAPXcwkp2UVUhi80iAAD5IOiaika/kN94Elo4FshdZqkwPpP3rZaziDy5PCCdvFa+oCAtQc74KomsD0gLn0goEbv8eUGCixXz07RijXwmW50xZOkCwXLT3bM+KG37GMYKaEY+l0M6gUjgeSmGHAJvnb0wxMmRnRakoK51OjOePU+Y7p5nrXGpkDvuMIseOiOg6dKWLolGFqnWYwNXrb/pxiVF61NT+8dbyAIDxjH2xWnly1W+799YAc25M3JMD7hbU+ef0r8o5srCcSsbADCVEHRNRaX1skuPNzJ3dTCi04Z36zTtBR7a9W5/j13x1OOJapvlmfnuoMKUu3qLdN6z0qzLw8iH8qYT5On5sdxl6ZTx8TT0p+TNQmQU1NkSa+y5v6wuhCp4dFuh5yczqe3TjRPb5JrEWSfkyDwwuiR/imdjdL2fqtxNntdwEoiY85Iy1kyn7lfvQ32zbDJrCscbeHv2y0rkEhxk6lYmZ86s6sceKXjF2kkyUbdFBwU1rqBFB06t8VTyvfu8k/+eHxi2/tZt2SgNrn3SEyvveNWkYFd8W9ByyQZokkFYY5deXectU6eLt+YXa5bN9Walkb7roOK09KUZm2bRQY0K6hx2mWo/zP0gub9/V+QrK3vJUmlyvy+qXPex67GiHb+2sxM26nnR9HM9j+uJoDfKnrfV+2TWFM5p+fi4/qvK/on3PZElOuV/4X8kAABMbczTNcUk5rHyodOzXxZrol/v/FfOvFl2Kna/zIDO6+pU6ymZ/5z5nczdVMmvm095yXN8JcvxGALopCRPu4ImX2PMUbXpHidrpBa8f34C30/dlfCLz8wdW9r3XlPvv84WGVh2TvN0KWnffz0lgH+GyoZtbfEARgcPaedaypozV5buolYROOmt//xgrjm6kul5sPrmSttj4r+/zrxZ2c47Fp+Pyp81z5dOO2/ux4+vSu3PE96g0aEnFd71WIU1Vsw/oYfzGuZukuDtbPm8f86+pfCZTyzwuQ71nnT/4r0Cz9OlONuZu17B5x0AAD+0dE0xJ8+3S8vpUxKzWkgMXdk2Y7zeda8vFJ3hr8dOMuEpVwUYMRUctOh5uDIMMsZ2UV7ve1kdo84oaFZZwihLz3FlJ9Gwy/NmIdETUOvzOlaAolsDnX2N9f9rVvtnvZ/6vJr7Fl3uUGrLmn6uHmf21pA6F2adRe23TqhizaNWwHMTZ2V41OPb/M7PEd+AS9NzSPWafO0DB98vYMClma51F3tl+3P7pf24GR9kDBzvk/YXg+YHOy27X/xAutU2cYN6YuX9qtL+numq5z9OaswujUF63pMWVWavKsctvp+egEsbuxvjmC1huiVJnRvPcSoDOrBUZY6VeTGf9y92oEN2HjzrnUNMB0+/S2091M/V50bvp/f5esLkD6z3pLDXjnHuqGz3e0/0fu47RsAFAMgKLV0Aph7TSqEnDM6qxQkAACAEtHQBmHLGmp8KAACgmAi6AEw5Y3etAwAAKB6CLgBTDJP+AgCAiYWgC8AUk/1cWQAAAGEikQYAAAAAhIiWLgAAAAAIEUEXAAAAAISIoAsAAAAAQkTQBQAAAAAhIugCAAAAgBARdAEAAABAiAi6AAAAACBEBF0AAAAAECKCLgAAAAAIEUEXAAAAAISIoAsAAAAAQkTQBQAAAAAhIugCAAAAgBARdAEAAABAiAi6AAAAACBEBF0AAAAAECKCLgAAAAAIEUEXAAAAAISIoAsAAAAAQkTQBQAAAAAhIugCAAAAgBARdAEAAABAiAi6AAAAACBEBF0AAAAAECKCLgAAAAAIEUEXAAAAAISIoAsAAAAAQkTQBQAAAAAhIugCAAAAgBARdAEAAABAiAi6AAAAACBEBF0AAAAAECKCLgAAAAAIEUEXAAAAAISIoAsAAAAAQkTQBQAAAAAhIugCAAAAgBARdAEAAABAiAi6AAAAACBEM+5btfpbsyyLF0fl/PmYuTf1TPXjAzCOyjdI9+p6iZq7caM90tL3oZw0d6euBfJM7RZ5snRI3jrRLq+PmNUTQqU0bF4rTbVLpbrKrJKz0v7Ee3LE3AMAIEy0dE1hK+ZvkL21bfJp/QvxW/c9G2RTuXkCJjBdgVXvWe0GWWHWTDVcn4U09a+XfDRsa5a2x9wBFwAAxUXQNSWpCtg9bdJZUy8PlkbMOls0Ui+vrG6TvfPNCqDopuj1OfKhNPa8LKvity45bB7CeKqUhQvspd59+6XliXZzo5ULAFA8BF1TjuniE9GV2SE5fHqftMQrgfvk+f5TEpOIPBhZaT8dKCquT4yTwT450HPZ3AEAoLgIuqaa+Q3yZKleOCXPn2iXrZcuusaSXJR3z++XxhP7ZNUXn5l1mJjmy53W+zjFcH2GZBJdL0vWyY5X26Tz7TbZs7nSrAQAYGojkcaUYloRVOXr8OmXVYXWrM6CHmfz9CLd7cuskCGJDX0kO1UlODkRwKZ7XpBXIqry3HNE7rrnR67WC12Z1l3IktdZmylmP8VOMCDlK+Xp5esTXc1G1fP7/9WqkAfJZj+Tyzup7m9S+/aU2jcn6UFsqEdtmybZgdrHZxatl4fc24yekjdP7Zd3UxIG5Fje/GbpXrRcoplUnoe6ChqYFOd8mu2mwfVpWyl765vkwWwSaWRznRXiesnqunYsUO9Dg+xyla3f7zf71blapM95+kQaDdvapG2NuSPD0v1ih3ScM3dDYpW5oE92PndUSKUEABgPtHRNJeX3ykNWJeiUvJ91hVZXNF8w42zMKouqjEWapLO+TZ7xTXBQKU/pCqpVedUi8uCiDapCm7Suplk2mXtxpZXytB7bs1pVTN1je9TygzVb5NN7/LqY5bqfiipvmapk7lX7+4qrkqnpsUSdAUkIVixuk0/VPurj8WxTulxeWf2CdC82A0aS5VBeRhXogiri+ZwW12fucrnO8rlecruu7YC0s8Yb7Dlj8Z4qMysmoqoKWWwWAQAoNoKuqaSs0q48DZ2Ud60VmVux+Eem25f+1X+fGWOjbie65K1RvT4iT672qZjqSq+VItoek2M9t7ReVeSS1slyeSQlOcJyeVBV+PSv5M9bz7Wf/3z/kP2wqkwnJ1TIfT81XZnUFWi1b65tW06fsh9W+/108j7Ob5bORbrCrVs3ulzjj+zt9K/m0UU/CqjwZ1nepf3x58STMOhWkvg6182v1SIHRT2f0+D6zFku11k+10uO1/UmHaz6vA8t6n04PKrPtfW0tI509UnvoL08cPD90Fu5AACYCAi6ppAVpTmOjyjfILtMBUx3C/J0mxr5TF7vS1RMn/L59TvW/6+mK9FF+c1lu0LqXvflNWuVr1j/Pmn84kNXVyY9rqddWkzF1pNQIc/9tIzq7mbt8rpr25Oq8vq8qUcvKXVvt0CeWbTcWrK6n533dmHT2zVaAUZEHooUorwiK/L5nPLXZ84KcJ1lJcfy1PvwlH4bfN6Hk+p92Bp/H8Zw7qjsfs7OILj9QNiJLVSgv3mjNOnujIPDct5eCQBA0RF0wdUC8VHAOIyL8nq/3XoRrbw3pUvcuVFXJdhwrztzzdTAUwzJoaHUbbWTQ1/YYy/K5ifKy3M/rcqiHqti7rn57qPTHW60R94I6g536aTVwlCQ8oqt2OczV5Pl+sxV3tdZlnItb8z3YQJZsk72vK2TdTTLLj0/1+BZ6f4F47kAAOOHoGsKOTlqfjXOsiLotEDErqUZaHPtsl1h0eN4rBVF4iqv6PvpVDJL66XTNYGv99YkD1pPnnyKfT6n+vWZs2JfZzmWl9H7MEENqNsFexEAgHFB0DWVjFfFE8gE1yeK5dxR2W5NgLxf2g8OS3XVUmn7yTo72AQAYBwQdE0lI5/LobHG4KQRLUuTFcD5dXz0spyxVoQsTXlF208nSNDptl2JBnxvmaYEz1YRApSinc9pcn1mrZDXWSbXS57lpX0fJpzLcuRAh7QfV4tkLwQAjCOCriklkSggOKOeoufmmZ+o9MbHp0TWB2yTGHgfu/x5QYOLO31TTPuXV/T9dIKEwPKKoVLuyrbs8g2yt9buJhaYzl4p/vs+ta/PQGMFQgW9zjK4XnIsL/E+rPDPZlme4QTNTI4MAJiGCLqmmJPn/9VkENMptNtk7+KVrvEzelLTZunWc/PUuCq9Ix/Km1Zd2GzjqvBaFWA9z5FVmTolb573TyyQGz3fUdI+piuv6PvpJGhwnUtPJXWBbFqszmd9UEr1fHwm7zvHunyDbHKXW67KdR97kk2uyYPTBjfj8L5P6eszxSX5k3WsumXP+xqe97Mg11k210uO5blaKl+pVY+5tnHet0zGnTU01Updlb1c/dgj0rrEXgYAYCqbcd+q1d+aZVm8OCrnz1u/ZU5JU/34Eha4KoZ+9Bw7OuWzuWsZexudJtqdtWzTPS/IKxGddvrl+GvpCVf1/D/p1yXKiqlKnP/cPqnl2bLfz8Q2Qa+Z2EcrRXhSRdp5LNDoKSuLX+J18ysvrnyDqsjW293YUuhU7f6ZA533xRa8D7bin89Mypy816dX4LWju/YlzZ0V+FxHynWWJMvrJafy0pWhnn/4mp7bLP25adjWJm06hbtlWLpf7Ah5rq5KaX21WRqlT3Y+RwZDAMD4oKVrSroor/fpSU575PCo9fO3MWQmek2u0Grubcwqi95GT546dgUze0Ny6JSZjNVVprOP/uUVfz9Pnm+3J+EdUmWYdRZ1bq2JZfvSVITzMfKhNFqTzrrfQx0IqMrw6SO+AZf2bn/i3CTmowoyHu/7VL4+vfS109JvTzYcp9+/oZQDzP86y/J6yak8U4beJiHx/DcymCqAyZEBANMRLV0YB2O3lADjh+tzaqGlCwAw/mjpAgBMfVW1srmexB0AgPFB0AUAmMIuy2/7hq2lui3NVtZE+7ZRGqy1AACEj6ALADClxQ50yM6DZ2XAjCUDAKDYCLoAAFNe7MB7sv25dml5wrm9J0fMYwAAhI1EGgAAAAAQIlq6AAAAACBEBF1TiG7JAwAAADCxEHQBAAAAQIgIugAAAAAgRARdAAAAABAigi4AAAAACBFBFwAAAACEiKALALKxZJ3seXWjNJi7AABg8ohubpU922rMveJhcuQphMmfp7nIs/K9O+vMnYTrf/p7+XrI3BlPOlh5qVaqzd24wT7Z+dxRmRRXbv1G2bNlqVQPnpX2X7wnR86Z9RNGibQ2V0jjXJGBE9/I9k9umPVhCbM857VvSfc7V6Rj3K/hibY/k1Gxr0/kjusdWYiUy57Hy1K/369ek537Rybc97sOunY9ViFy/ANp+flpszZ8tHQBU0TJ7JT/7pReucGXZWHooFEHXKICrueCAi5dUZkvnT9Wt+Zyic+cd/cce5267bjbrPNwbZfu5n5NP5FZslZVaLXq1bPCb40rdnkoEHO9jXU9pch1O4PrZZzl+f6hQHgfCsP1vek+l2N+34rEDnTIzoPDImselj2bK83a8BF0AVPEzQvPyp+P/b25/VRGrquV1y/ITfvh8XfuqGx/ol1a4rcPVEg4WVRK6090K92wdL+oAi6zNq2rN31+3bslX10xi2EYuiHHrtqLAyduZLaf+Sh2eZjcuF6AqWloRLb/8pK0xG/fFPf7PYfvWx14tR8XqX7sEWldYlaGjKALmJIWyczZ6s/oBAq6JrHo5keksUpVFA++Lx2hdinUXXncX1xJtzG7adyUjv32c4vTdavY5WFy43oBMHEc+bn+8bdCGn+yriitjgRdwFQUuV90zHV9+CP7PvJQI5t13+/BPtl74LJZF+SmXDC/5HtcuSUDZhEYfzPlDtPNLzu5boeJgfdvYuB9KIxCfN+elgO6m2FVrWyuN6sysWSd7Hi1TTrfbsuqeyKJNKaQ6ZZIo6RsvcyubpJZFVVSYtbdHP6VfH2mU30UA5RF1Tb/JOWubeR6r4wMvCP/NeR37qLynZU/k/LRN+TPZ3QAo7Zf+LiUV9e5ynxDlfmRb5klkRb13LUye3aVWTOonn9Mldcp16+ZVX6y3k+vkoWvSaRaZOQPz8p/pSvHpSTyrNyuj0tHa5ZBuT7QJSMX/I8tfzWy4+2HpS6LRBrR+nWy+Qe1UuecThmWgeO9svfnp9NuH63fKFt/sFSq49ulGji4X7b7BVVq284tS4MfT9Lw6Hxpi+ruU8Oy/RNz5uKDjG9I+y+/8elWpfumZzto3dnG3E3iKd/DbCfOAOcStc9zpCk6Mz4IeiB2Tfb+e3KrWq7lOVQ595epcmZJdfw11JdjbET29t6QWMoxJ5+TTPfTJTJLWuvKZa17m6s3pOs/1HsQeI5LJHp3mWxdk9hPXU5X74hInX5vC51YINvz4pLN8d09R/a4jimt2DfS8u+mJSrX7XK+XnK9PhOiap/d75+fsa/XMTif6cBEAcnXr1mddHz6Pdz8N+VSN3em/fDVW9J7/BvZ/cc89s0t7/ev2J+/3ETvnye7VkviXPuVrY5vrzq+lP3NeT+d/ytK1Pk175/z2U0uJ+f3wSVgP48dvyYdKdfLeH+OZsmOH8+RumwSaeTwPuT2fZvESfKVRVKNhm1t0rbG3LGGHXRk1AuGli5MQiogWaaCiu8/7Q1KlJKKH0pk7WvynTKzwkUHFZHv/0xuT9pGZtdJ+Z0/k8hCn8blsnUySwUhN0f71XKLem21vSvg0koqnpbb/bbV5d35Q1fApamy1T7e/v3X5PaIf2N2TvuZpKRUlzkgNzMKuNbL7Sv/Re2rO+DSqlTg97REVrZ492NcVErrq22ya4s74NIqpHrNw7Lr7dbAPtkN21rVdukDrnQa/mqp+ndYjn0ydsClnVeVJm1w2PVFNHRThbCKeuy8tWICUJWExepLbof6Ym5zfclp1dEy2VXQQd6mnNXJX+Cq3Ogc2fX4PNlxf5qrbF72+6krYZ2Pz5HG5G3mzpK2x+fLHt/y7IrKroe8+6nLaVP72JRJhSkruZ+XXI4vowqfj1y3y0uO12fDo6rynfT+TUjq+DbrfVXvYTzg0tRy3UMV0vnoLLMif3mfi6J9/gojsGx1S67857yf5tq0rzXX++d8dn88T1ojZpWR+/ug/l9S10rQfjaq6yUoYcRk+Rzl+j4U5Pv23Bk5pjdYc1foyX1o6ZpCpkdLl2l5soKDQbn+p/8pI0Mx0xLjaoW6/isZ+szV4uVKp+5tmYpKidomorbRr5fSMmS2u3ldfSJV8FRyvVe+/vIduX5Nn2cd/OngSC2q17RbwhzOftr7+HW8dUqVF3lcbtcBTprytKz200MFUWufltkp++THPFefS92qNazKc163bL185y4V2KpzHU7a+cxbuuLpXVXw07vvfdndYwKgJTXS+pOHrfFWorMKPpGU5MK0Ulm/RKntOsx2usVsqwrgrEyEydt46GCvWb3+WM9zuXuOdKovq95Dl2T3H806U5lP/OqYLPlXZbM6B/rLa9fqmWO3JMS/TFWZh76J/1Kqf93UX7aa9xj8jV1e4jly9Ya0e361TLQqSSx5+zz207wHepveEyNy4JPEr87Wr7e6MqFfL+lcO7+aWtupspzWhqiqtGz+G105th/L9z1y5HZelByPL0FVwrL9FdqS63YJoV6frvPi3aZcnZMsfvnORL4tXeb4nFZU+73XrZ5zVBBuV+Iz+fxlJ5v3r/ifv3w411Vv7IbURVXZ1mfqmjqvzjWmPlORm96W45z305xHvajK6fa0NJmW69WzZDDw/cvyc2T202718R5T4npJvrbH+3OUxTHm/D4oZlvvMZhjD/y+TWXXMSTjFiure+FP7B+BM+0Fo9HShUmlZOE/2QGXDqqOPWsFM85/P/o3rOsXXpOhP6hg5Ut3F0MVWJhARgcPQ56ugGp7vc2A/pmjSmZVeH/zcdKwl+jWqoGfyp8/e80EXJoqb+BXrtfycf2YFRQmqPKGVHnHfipfpwROue+nR9lC9V+OaZ0bw+xlOuBSgaTal691N0L3/lz7SP7rS/v4SmanKS9s6j+3rSbg0v8hxgMu7dxp6Xhuv3RbP2stlaakvtVR8zNd7z71H6lru1jPUdm+76xaWioPpO3HPU/u0AHd4HCWLVQBWZOu+mVYcpspjY+bFLjJtwL+8h2nKya/VF9k8QqDOjd//EbazU5WVRT212hdwfR2E1HnQ5W3fb9OrJDmk5TVfqovXB2sKL2Hrshu1xe4ZpV3SHfdmSlr73JtpyrRTSbg0l/u7u5dsaEbsnu/uv78xg8UQHbnJcfjm4yyvD6j5r4+L95tRsw5mSUPBLUIjAMr8Px3J+DSbsqRT67IzhP2r/d1S0P4zOeiGJ+/AtEBlz6vLfv1jxjuz05SwJXHfkbvLxc74NKV+kRQYtPvodr2neGAgCsHal92vqP+L/A5Jn292O9DiSxMalmLm9Cfo0JcL7l+3yarkDvuMItjOXdUdj9nZ2LONODSCLowiayXcquPmAoS3K1YyVSw4B4vVbKwyUoqcVMFTUGtNXqclX69ktJF9grD7qang6CfytCF4I9vaoCjgqRR9Wf2D+X2ZeulJKW7owrYklqq8tlPj1ITdF0f67+b9Sp403/r5Pbv/4t8b63P7fs/tF5rXN1RIVboe7w34Beoy9Lxax1AiVTXLpNsw8Oq6gLP0aG+JFr0F1xSJdrK2ubXT3/cqOBCt66Ye25Ol41CiX15wxrYXL16juy4f5ZEgyoHvrLcz4iZC0pViA4EVXr+eMNKZ1ytKmjx62We6dYSGynYr+9jyem85Hp8k04412ehf0jI3S059qX/t5hzXcjckgnw/hXp81coMVVJT/cDjiPn/SyRv47qliV9XtK0oniCo/zFA8ZIiTTcXS47Hp0ne5rnWT/I2a3zM+WOedYzkkzwz1G+10uBvm9jAyH9opaEoAuTh2nBkeFPRE9BlSk7cBqUG8PZ/eYh6uNdUqr/6gmG/bctqVgbGOBcP6OCp+FBa8xXxApqXpPbF6oAzDyeLPf99JpdoX+Dy2BSZJPhcKJzWqsGBtJMuPHVsF1JqaqQxdYKm/Mfad2WjdLgHvO1pEZ2WN0O1RkfyPxXqvCpL8iglPETKmDLkp7D5Z1r0nt1ptSpAGOX05qnKg3ZB2FjcIKnuWWyy91S6LmZrkEuzq+7AwUOONPK5bzkeHzTQcyM66h7aI40uM+dqtjtMF2pPGM/Jjo9HscsThrjfH1m/PnNeT+dzIM35UKRfpzRdNe+HXoi4McrpO2hMqnTY588Y8kKp6ifo2n2/xlBFyYPpwUng25zCU7gNEZSCd/XNnNdpZlg2AmUbulWrRQxFXg9K3/+gwq+BnrVa5jEFFbwlfx7TT776WZeJ4NJkZ2uk7orY2JSZf9bula+Ca3nPWvyQ92NsO0lO72rdXvpYfs/8eMfyIEevYDQqQBjt/718Z1haT9xQwUat2RAJw0wwcaeR0P41Xsy4LwUTrzLlD34Pl5pe9xU2mLfBP+aDkxU1vgrFWhZLULq/4gT6jpX/1/sVDf9g5zTTbBgpuHnyPlxN2wEXYCq0nzHSlCR1GLltAQFTjCcYaB0zYw10wHMH96Q69d18PVPvhkW0wvYT4/sJ0Ue1/FaWaiu9u07YXO6IPqOvRq2/vXO2zEsvQc/kJ1jpJoXuSJfWcPovC1oyMOQPeZh9/4rsl234L3zjQo0dNeRObK1EBnNnDladNpld0uh381nkHVYvx6PKdPzkufxeeTakpLrdkVht3R4P+96gP43sjM5jfdE5fz6rwLwULKdhvn+FfL6DFPe+5lmDFWmMnofnNalW9J9yB6rpsc96bFdsQJ3YfQq0udoQl0vw/LVV2YxJARdmDxMIFFS/Xhwt7iy5O57ZmyV1MmsgP8g3ck5RlzdBeItQcNBGQCDWsLW2+O4zD2Pax9ZrV6qFi8zrYDNkft+ephAMZPWwJvX7f9OS+at899XpSSiAkuzHCjHSQLjxghoYp+ctf9TXlMXkBa+Ulp/YHcVHOg74/1PuX6jNZdG94vtsv0Je9CrfeuQ3QfGCri0y3Lhov47VxYGpKTH2KJ3p2mt0UkqjttdJwsS8KjXO6Z7lUbLU1I2pxMfRxOd5Z82OFL4CU1zOi85Hp+/XCuOBahwhuHuOdb4Ft1F1wpc47fUAfp5UxVeK39PQMU5ev8cV+Y4f/5jcBKJBQZiYQWJIb5/Bb0+Q5Tzft6Qj603ZaY0/k2aaTUimYzHy+J9uHpDfutJ2OFQr2GWCqaQn6OxAssJcb1Uyl/X6gHuV+VCJpkLLTWJes+2GrNubARdmDyuHZUb1mCuOrl95bMyu8z1X5qeTHjZa/K976fOmXV9WAc5IrPvTJobS6dE1/N9Wck5BmXEk/FQ/VeWtuug4gQ4V456t9MJMfQ4rpV2eZ6gRZWp5/nyk+t++tGB1GynJU2fG785wYbM2LjZP7Tm4oo/X9ETT1tl3vkzKR/jP8KGpsTcWdWPPRI4X1Yq04pkZR2sSXxBLanxjr86d1S6rC6CFdL4UqvsqHcFdjplvJXSXd85K11JWYTsLgMVcsf9uSfLOPI7naSjQtbm8RrTWkSnGZ4jet4aq6ucqoy46XTszjiBwoynuikdVrCiM0H6jY2y0yzv+fEcb3DlfPnrLjXN3rEMOm3xHqdrTaHkfF5yPD4Pb8XRO25DD9QP+qkl1+2Kwx6Xp4LjomRtvCVfOdeLuwuoOg96TiVrKoC09Hxc5v0za/SYmUSa7xvSlUlCiKwU4/0rxPVZDLnv55Hea/YPNHockvq/otVz3vR0D/r/iwrZpa4Lfzm8D6qsre5rxSlHXy8+X+/5KMznKPH5aEq6xj3HOxGulyXLZK2uQxz/0jfhiJ/o5rpEvSfwB+FUzNM1hUyLebr0BMVpMurdHP6VfH0mNSiZvexf7Pm0fPnNe+XMs9UrXx97zTdxR8lCOxDym8PKeSzQ8BtJKeFt2e9nMmferSTJ85Y5XPOC+fHOFeYv15nZtcT8W0lSZoZ35ssyd1MElOvMNG/u+hkYPCvHfn3Mk1LeK/P5xHKnKmpWZUsn0kjOxJSdzOdBCi5r7NdIyOS5ehD45jVmTEKQq8lzquS3n85jga7esLJ6eV7XmXvJ3PXQYymuzpK6aP7vkSO382LL6fjc0h2rqhQGzsOT63bG2NdLHu972n2z6bmOjnnmVcqDqvTa8wul0vvWNVdPSJt8HM7x6X3RrZhmtUfhrrEUGb9/4/D5y8PY15W/nPdzzGttjPcwi89R2n1U+6fHX+kJ1n3nqhrHz1HgfuuuhEmJoXJ+HwrAqYf07muX3RmO8U6uu2Q6VxctXZhcrnXac1wND3oDgeu9MqLTuvsEXNr1M38vQ3/qlZvu6Om6nhBYBT/H/AKZ/JJo3LygE2i8ISNJ+6knWbbSzwcEMtnvZ7KP5Os//Equu7a/qc/NgLc1Lm7oNTPOzGpyirOC1z8kzxXm70hXn/SazQcOvp9xwKXFDnTIzoOm+6BDBUHdv0vOVHhZOp5rl537EmXZhmVABWg7nwgI9M6dka7j9piuINVVS6VxS7PsCJyv67QcOKheo6pWtubSfRLW/C46WcTOQzpTn7c1S39567EKmU5imanYJ1escVHdMTNmwKHKt8Yl6Pl1kr/ArWyC9jYJiecfKEhLXEI+5yWn43Mzx+pf7rXgwCnX7Yph6IZ0ed67VNVzZ0njQxWyoxDzDP1RnedDN9Sxm/uaOg/tuluWqsSmT8l9S479h37vvdvrOdvawwq4tCK9f3lfn0WS837q8/hLO/mNN9u4eh0VVOxMSWOeJIv3Qe+j33XmjPE6kv4rLnsF+hxZ+63Pj7lv0ft9NvW1x+96qZHNOnga7MsqqVbsQG9SXSQztHRNIdOipQvImGkdk3QtVJXSsK3ZaqlL/0uV09KWXUsegGIxv+yLf8ugrUQaHtWtT+rznmWLSOGM3QIBjJ/J8jkqDLunTh7f6/UbpXPLUlq6AExzpp92SnINj8tyfiCTnwkvS8cv+mTAGle2cZzHIgBIEbEnWU2ffGKs1idgmptGnyPdRdD+wTW7Hjpu9rjxYTn2ydgBl0bQBWBK08k9dPKN5LHGUZ2EY5vTLzs1CUeKc0dl+z7dFXKptL1K4AVMRNWr58iOu1Mzx+nEJIkEF2EkqQCmjqn+OYqPyTr+QUYtVL6WrJOt1mv0Zhy00b1wCqF7IeDlTfIRQI8h+8V7mf/SpZNz/KRCutQ2R+hmCEwYDY/Ot7o8paXHlIQ0ID8zdC/ExDY5Pkf50UHX1upe2e5J2JWpSrX9WhVwLZVqVX9of07VBcwjYyHomkIIuoBU0fp1svkHS6WqykygbDhZC3/bczlNNwoAk4mdEXKWVM01EwwbOkGBzram5zoa3887QRcmvon/ORpPdkbjquMfyF4VtGVzHgi6phCCLgAAAGDiYUwXAAAAAISIoAsAAAAAQkTQNYXQtRAAAACYeAi6AAAAACBEBF0AAAAAECKCLgAAAAAIEUEXAAAAAISIoAsAAAAAQsTkyFNMw7Y2aVtj7siwDAxela5fvCdHzplVAAAAAIqKlq4prUKqq5ZK20sbpcGsAQAAAFBcBF1TzJGft0vLE+b24gfSPajXzpWFS6yHAQAAABQZQddUdu60/LZv2NwBAAAAMB4Iuqa42MBVswQAAABgPBB0TXHR6rlmCQAAAMB4IOiaFq7KBbIXAgAAAOOCoAsAAAAAQkTQNS0slbZX10kDGQwBAACAopv5vQUL/tksy+23z5Wvv566iRem+vH5ufr5RfnPJdWy8O47ZcNDa+X/27RW/tv/dVZ+8/k18wwAAAAAYaKla5qoNn8BAAAAFBdB11RXv1ba1lSIDJ6V9hf3W5Mmbz9w2TwIAAAAIGwEXVOcnTJ+WLp/8Z4cOUewBQAAABQbQde0QMp4AAAAYLwQdE0Lc2UhmQsBAACAcUHQBQAAAAAhIuia4mID0ytFPgAAADDREHRNcXYiDQAAAADjhaBrKltSI5sfqzB3AAAAAIwHgq4ppmFbm3S+bW4vPSx1euXgWfkt2QsBAACAcUHQNaUNy8DxPmn/xVGJmTUAAAAAimvGfatWf2uWZfHiqJw/P3Wr51P9+AAAAABMPLR0AQAAAECICLoAAAAAIEQEXQAAAAAQIoIuAAAAAAgRQRcAAAAAhIigCwAAAABCRNAFAAAAACEi6AIAAACAEBF0AQAAAECIZty3avW3ZlkWL47K+fMxc2/qmerHBwDFtUCeqd0iT5aKxPq7pPH8Z2b9dFcpDZvXSlPtUqmuMqvkrLQ/8Z4cMfcAANMLLV1T2Ir5G2RvbZt8Wv9C/NZ9zwbZVG6egAlMV2bVe1a7QVaYNZOfOSbX9Wjf2qS7tlmemb/APG8imYrvg1uex1d+rzykAi4tumiFbLIXp72Gbc3S9pg74AIATHcEXVOSqkjd0yadNfXyYGnErLNFI/Xyyuo22TvfrADGXUSipcvlyZotUzi4maJGPpdDo/ZirP+kvGsvTnOVstD8ftC7b7+0PNFubrRyAcB0RtA15ehfrrfIkxEdbA3J4dP7pKXnZVll3fbJ8/2nJKYquQ9GVtpPB4rulDwfvybV7YRzXSql9dJJ4DWJXJTX++z3ka6FSQb75EDPZXMHADDdEXRNNfMbrPEVVsX2RLtsvXRRTloPaBfl3fP7pVFVcld9QQVpYpsvd5puW1PeiHNd9sQDr6cnTEvsVH8fpsF1tmSd7Hi1TTrfbpM9myvNSgAAiotEGlOKaeVSlajDp19WAZdZnQU9DuzpRbpbolkhQxIb+kh2qiAtEbzZNt3zgrwS0a0WR+Sue37kal3TwZ7u4pi8ztpMMfspPdLS96FI+Up5evn6RFfIUfX8/n+1AsYg2exncnkn1f1Nat+eUvsWNc+IDfWobfVjAdQ+PrNovTzk3mb0lLx5ar+8O2JWxOVY3vxm6V60XKKZVIKHugoaOBfnfJrtSvU1o86bWeu2YrGqHC9S18Go89pJsnofHGr/FjfIU5Xuc2uOr18dX/J2eb4P9jGIvHWiXV7Xr+23z2q7+Lkt3yDdq+slGnTM8fM2lHjNFAvUe9gguxZVqv02n6Og9zDn43P2w9xNEuvfJ43ngz+zWtE/t0rDtjZpW2PuyLB0v9ghHefM3ZBYZS7ok53PHbV/SAAATHu0dE0l8UHtp+T9rAMuXcF5wYwDM6ssqoITaZLO+jZ5xjcBR6U8pStGqiJki8iDizaogCtpXU1z6iD70kp5Wo89W92UCLg0tfygHt9zj18XyFz3U1HlLVMV4L1qf19xVdw0PdYtqFubrkR/qvZRH49nm9Ll8srqF6R7cUACiBzKy6giXFDFP5/pnBz6wrR2qde21iTk9j6Y/UsJMszx6fGNPtsV6n0I3Gd1SxcoZMW8B501+hhdn6M07+F0v86KoqpCFptFAABo6ZpK5jfLp6rilUsrSLyFQXSrlKuVSVV2nlmuKo1WRcnbQmG3dOkl5xd488u09dzUdYnWN/fz7F+r3+z/0LRU6FaJH6lKsl15TG6xy2U/k8uz9k1t+7rZdoU6b7rCqqW0EDrnVJfX/5G8cT7xi7zebpeu6MaP1TyQT3lxqpJZr4LRwNaPwiju+XS2C27pSjwn6Zzm9D64jm9UlelpDXNahtRrXk7XQpP9++CUeXjolDwYUa9vlX1Ele2Uocouv5hoYcurpcvsn15U5bzVfyT+PujtrBY+dYznQrzOnONN19JV9M+tm+5e+JNaqasSGTi4X7YfCH+cld26Rop4AEACLV1TyIrSHMcrqErfLlMh0pU6T7e+kc/k9b598paVoWy5POXTKhDrVxUhqyJ4UX5zeShl3ZfXrFW+rIraF07ApenxPe3S0m+/jifhR577adEV4B5VcXVte/LSfnneLk6WlLq3U5U+XSlXrO6Rroq+prdrPH1KLUXkoUghyiuyop/PbETkzjKzWID3IXZZBz3mjkUFPXq7Pp0AwnXcBaQDLn19r+rTwZ67DFfAlacVi9ebgEsHTfs974P9WbLHcAYGJMUw3tfZuaOy+zk7g2D4AVelRDdvlCbdnXFwWM7bKwEAIOiCUqYqCvrv0EdJv6I7Lsrr/bpSKxKtvDelK8+50dRKq3vdmWumZpRiSA4NpW6rxbuZlc1PlJfnflqVPt3aYe65+e6j011TVWjfCKq0Xjoph9WfgpRXbMU+n7nK431wrqPooh/J3sUrZUVQF7YwDOnJgv2v78JYIH9baYKZUx8Gt1J5Ar5xMFmus3wsWSd73m6TzrebZZeen2vwrHT/gvFcAIAEgq4p5OSo+RXXHahkwGkhi11L83P4tcuBY21C5Sqv6PvpVBZ1GvOUCX2dm+naNQlN6PddVbT/5LSQ5vM+jHxoZUU8PKrHGuoxXOb5tXosV7hBWNrzWhBO5sHL8mWBWs7CMLGvs3AMqNsFexEAAAtB11QyxSoumIbiyWAKGEiowGurnkvKzAd2eHRIYjpZiwnCuu9RwZd5KpCTc0dluzUB8n5pPzgs1VVLpe0n6+wfCwAAUAi6ppKRz+XQWGMj0oiWpZkcyWltGL0sZ6wVIUtTXtH20wlidWIS92S+frewkl0UIYCeSO/7isg9dnlDJxPdyQr1Ppj5wLb2tUujfu6JLhWAqeOPNMmusT4vE/qHjEq5K98Wu2l2nYXnshw50CHtx9Ui2QsBAC4EXVNKIpGFHsMSmIJZZwybn6hkxsdPRdYHbJNIZBC7/HlBg4tEsgQ3//KKvp9OEBtYXjHkUKEu3yB7a+1udIHp7JXxfN99xRMuiBwecmXfzON9WDE/TSvWyGey1RlLlC4gsBQgsAkyckmsaaMCAp8Vi3/kyuDn9pm8b33cI/Lk8jRp08sXZNCSF97xjft1xuTIAIAJgKBrijl5/l9NJjBVEbPmIHJXOnWa7Gbp1vMG1biCspEP5U2n8qa3cQVkVoAWT9t8St4saGIAPR9X0j6mK6/o++kM8HedS0+lUafkVuez3mcOsrx5K9Sb3OWqSvQm97En2eSafDZt8D1u73sSfTz6POq06fr+UFdStr0c3wcdxNXYc0BZXQhVOW4r1DHuNSnHg8cb5f4+ZO6S/Mm0UL/i7uqoXv8ZPY+dCUT9vNvfYwc0erxbbbPnx5TE532LdPrOeacV4fjG+TpraLLTxWvVjz0irUvsZQAAiol5uqYkVVmLV2T86LlydOpmc9cy9jbJcwQ583S558iJz1GUdl2irJju3uVbZmp5tuz3M7FN0Gsm9tFvrqHEHEMB9PxIp/a7Xje/8uJU0BAPRFIkz2mUkJg/TQveB1sxz+dYZanrYahHdn7h30Uw+/dBbTN/gzztCkJ9jTVHVZbvQ0bvbbL4PGSp9Ou8WaYnBg4432n3TxvjGsjxOnNkdrzFvM687DmzzB0Zlu4XO6TDaloMS6W0vtosjdInO58jgyEAwEZL15R0UV7ve1laTuusbdZPzMaQVal9XlVgvAGX5t7GrLLobbqkRc+RE1Rpy9mQHDqlyzxlBV8OZx/9yyv+fp48326N/3lrSJVh1lnUuT3cr8rU8yMV/NwoIzrznh535H4PdaCqgovTRwIrwrr1wzk3ifnSgozH+55MlaXnYTqhKs4BAZeWy/tw8pKdRCP1s+Ccx31jTwqc4/uQlUv7Uz4H1txUJ+x5xNKmRtf712MnCfFsn+l7WIzjG8fr7EhXn/QO2ssDB98POeACAMAfLV0YB2P/gg0AkxMtXQCAVLR0AQBQaFW1srmexB0AABtBFwAABXNZfts3bC3VbWm2sibat43SYK0FAExHBF0AABRQ7ECH7Dx4VgbMWDIAABjThXHAmC4AAABMHwRdAAAAABAiuhcCAAAAQIgIuqYQ3ZIHAAAAYGIh6AIAAACAEBF0AQAAAECICLoAAAAAIEQEXQAAAAAQIoIuAAAAAAgRQRcAZGPJOtnz6kZpMHcBAJhKoptbZc+2GnMPhcLkyFMIkz9Pc5Fn5Xt31pk7Cdf/9Pfy9ZC5M550sPJSrVSbu3GDfbLzuaMyKa7c+o2yZ8tSqR48K+2/eE+OnDPrgQmjRFqbK6Rx7i3pfueKdEyEzz7G4LxnIgMnvpHtn9ww64GxhPN510HXrscqRI5/IC0/P23WIl+0dAFTRMnslHBG6ZUbVLoKQweNOuASFXA9FxRw6S/A+dL5Y3VrLpf4zHl3z7HXqduOu826ANG7y2VH87z48/Vtz6Pl0hAxT8AEZt5/93sPZaqflzyPLzJL1qqAS6tePYtW9ElzvUz0/TT7p79H3PuYwfdR7ECH7Dw4LLLmYdmzudKsRb4IuoAp4uaFZ+XPx/7e3H4qI9fVyusX5Kb98Pg7d1S2P9EuLfHbByoknCwqpfUnupVuWLpfVAGXWZvW1Zs+rXe35KsrZjGF+oJ8dJ7seqhM6ubONOts1dEyaXt83pgBG4BJaOiGHLtqLw6cuJHZ/y9ANrL+PrIDr/bj6vvnsUekdYlZibwQdAFT0iKZOVv9GZ1AQdckFt38iDRWqQrRwfelI5QuhfoXyQppjOpg65b0HhqWnb+8JC3WbVjaVUVsQGZK3dJZ9tMBTCE3pWO//XmnayEmkiM/1z+Oqu+mn6yboq3UxUXQBUxFkftFx1zXhz+y7yMPNbJZ920f7JO9By6bdUFuygXzi7XHlVsqaErj7jJrPIfIDWl/54rs/qP7V8mbcuSTb2T7O8PS8u9UyCa2mXKH6SYGt6l+XnjfC2uynM+Jvp85fh95nJYDupthVa1srjerMrFknex4tU06326je6ILiTSmkOmWSKOkbL3Mrm6SWRVVUmLW3Rz+lXx9pjO4dacsqrb5Jyl3bSPXe2Vk4B35ryG/cxeV76z8mZSPviF/PqMDGLX9wselvLrOVeYbqsyPfMssibSo566V2bOrzJpB9fxjqrxOuX7NrPKT9X56lSx8TSLVIiN/eFb+K105LiWRZ+V2fVw6WrMMyvWBLhm54H9s+auRHW8/LHVZJNKI1q+TzT+olTrndMqwDBzvlb0/P512+2j9Rtn6g6VSHd8u1cDB/bLdL6hS23ZuWRr8eJKGR+dLW1R3ExqW7Z+YMxcplz2Pl0m1Dqp++U1S9yHTyqW+vHsPXVIBl1mdBT0ObPMa3S3RrBD1pRobkb0qSEs+L/b+6f24JgsfneNqXdPBnu7imLzO2kwx+ynXZOf+EWscyua/KU90hbyqnn/8GytgDJLNfiaXF1P3G9S+Nal9c0YvDsSuqW31YwHUPrbWlcta9zZXb0jXf6j3IGWsY47l3T1H9qyZJdWZVL5i3xQwcC5R57NMtrrK1vvX1avemzr9HqcZWJ/VeXGo83F/mTof7mM171+vev+St8vzvETvnye7VkviGPz2WW0Xv3acz9hV5/1L5nzO0iUccM5pidpvp4tvwDWa8/E5+2HuJvH8vxGg6J+jnBT3erEEXNfHjl+TjoD/l7K+zkLcz7E+f7l83rP/PvLhJMHKIqlGw7Y2aVtj7ljd8jtC6iUyudDShUlIBSTLVFDx/ae9QYlSUvFDiax9Tb5TZla46KAi8v2fye1J28jsOim/82cSWejTeF62TmapIOTmaL9ablGvrbZ3BVxaScXTcrvftrq8O3/oCrg0Vbbax9u//5rcHvFvrM9pP5OUlOoyB+RmRgHXerl95b+ofXUHXFqVCvyelsjKFu9+jItKaX21TXZtcQdcWoVUr3lYdr3dGtjnvGFbq9oufcCVTsNfLVX/DsuxT8YOuLTzKvjQBoddX/JDN1UIq6jHzlsrXNQXsD2I/oZ8nHXApStU8804MLPKor7Mo3Nk14/nSatvAo4SadIVMfWlb5spdWvKVcCVtO6hOamD+lVldLMee/b4nETApanluocqpPNRvy6Que6nol53sTpHO9T+trkqKZoe67YrYBC7rkx1qn3Ux+PZZu4saXt8vuy5P+CqzqG8jCpgBWVXpHc95K38OWP/mtLsT27nxZyP1cmVTfP+6fGGPtsV6rwE7rO6FSxQMO+5fU5d13Waa3R83vfifo5yU+zrRZ0X9X9S0HXdqP5fymQ8bKbXWT7ve26fv9w/71l/H/k5d0aO6Q3W3EWSlzzR0jWFTI+WLtPyZAUHg3L9T/9TRoZipiXG1Qp1/Vcy9JmrxcuVTt3bMhWVErVNRG2jXy+lZchsd/O6+h9HBU8l13vl6y/fkevX9HnWwZ8OjtSiek27Jczh7Ke9j1/HW6dUeZHH5XYd4KQpT8tqPz1UELX2aZmdsk9+zHP1udStWsOqPOd1y9bLd+5Sga061+Gknc+8pSuevlYFP7373pfdPSYAWlIjrT952BpvJTqr4BNJSS5MK5X1S5varsNsp1vMtqoAzspEmLyNhw72mtXrj/U8l7vnSKf6cvS2Wtlfmolfm13M83NpBdFf4LtW6wqibpVytTKpylXr36gvduvL2PtrpvPLp97G/mXU7Jv13NR1ieNwPy/xK6v9y6z+VXuOqmTZldXkFrtc9jO5PGvf1LbOL9ZRdd50JURLaSF0zqku78SIHPgk0QKgt9uqKy/xYzUP5FNenKps/lgFo4GtLYXhfg/d5zOqzudmdT7tCnny8Sk5nRf1mPP+XVXvkefX+MSv7xJL10KT/XlxyuyN3ZC6qHp9q+xrqmynDFV25GaixSSvli6zf3pRldPtaRkxLTYqgBgM8X13jjddS1fRP0c5Kvr1Yq5ru7XIe40k/l9KPi+2rK8zj9z2M9vPX86fd82U6X1vzTXh930UwP4OlsxbrHT3wp/YP5Jm2ktkOqClC5NKycJ/sgMuHVQde9YKZhL/bcfk+oXXZOgPKlj50t3FUAUWJpDRwcOQpyug2l5vM6B/xqmSWRXe3/qcNOwlurVq4Kfy589eMwGXpsob+JXrtXxcP2YFhQmqvCFV3rGfytcpgVPu++lRtlD9l2pa58Ywe5kOuFQgqfbla92N0L0/1z6S//rSPr6S2WnKC5v6z3urCbj0f/jxgEs7d1o6ntsv3dbPdkulKanveNT8LNi7T31RuLaL9RyV7fvOqqWl8kDafurz5A4d0A0OS0a/CMYFZIW6mppBKlrh98tmBlQlc6upgOkv23gFTBu6IR371fmy+vPPkiafX0/1fED2F/RN+W3M/jXUvc53LIBhVQz/3Qm4ND3u7IrsPGG/jifhR577adEVoV+qCoVr29gfv5F2czKrPOdQVSh0pU6xuke6Kjaa3m77IR3czpS1dxWivCJT57PJVMCSz2dMnc/d8fOZLP/zogNtb/cndT3r7fbrBBCu97WAdEVYX28t+3Xl3V1GUEU4e9H7y03ApSuhiYDElhhTWYiAJGdF/xzlr2jXi3rNne+o1/S5RvT/S/bxlcjCNNNuhH+d5fj5y/nz7pb591F6FXLHHWZxLOeOyu7n7EzFBFwJBF2YRNZLudVHTAUJ7lasZCpYcI+XKlnYZCWVuKmCpqDWGj3OSr9eSekie4Vhd9PTQdBPZehC8H9PqQGOCpJG1Z/ZP5Tbl62XkpTujipgS2qpymc/PUpN0HV9rP9O16vgTf+tk9u//y/yvbU+t+//0HqtcXVHhd0N43hvwC9sl6Xj1zqAEqmuXSbZhodV1QUe5Ku+PFt0xSapsmFlJ8uyJSuteaZ7Smwk9ddNiyrzuF1etapQJJ8XT3cTw73O6ZaS6pYc+9L/0xf7UmdZVOaWJMrLcz+tyob+tdzcc/Pdx4jprqkq0AeCKsl/vGFNV1CQ8optzPMZII/z4ryv1avnyI771WNpKq8FF1OV0ZACOluJ/HXUBDP/keZXf09FfBwU+3OUh/G4XhItniXSoOc6fHSe7DHzHdqtRDPljnnWM/yFfZ3l+vnL9fPuKND3UWxgzMgOGSDowuRhWnBk+BPRU1Blyg6cBuXGcHa/6Yj6b6+kVP/VEwz7b1tSsTYwwLl+RgVPw4PWmK+IFdS8JrcvVAGYeTxZ7vvpNbtC/2abwaTIJsPhROe0Vg0MpJlQ5Kthu7JfVSGLrRU254uibstGaXCP+VpSIzusbofqjA+M769wMSfQcQcqGXBayAbSVZicLFV6PIe1okhc5RV9P51Kytwy2WUmAE29ma5kk1BG59NPPudlaES2v3NNeq/OlDpVkd71uHm+qtSGXanO+jiz5mSguykXcqnUFsmE/rwnG4frxZ5UXpXxeIW06TFvesyUOg+ZCv06y/Hzl/PnHRMSQRcmD6cFJ4NucwlO4DRGUgnf1zZzXaWZYNgJlG7pVq0UMRV4PSt//oMKvgZ61WuYxBRW8JVcvc5nP93M62QwKbLTdVJ3ZUxMqux/S9fKN6H1vGdN7qi7Eba9ZKevtW4vPWx/uR3/QA706IVxNFEqSkA6qiK9W/86/o49b1yvqgQOqGvWqVTvedSvdQXTVjGvF2tcmkkuclWVdeIbaVfl7tTTbPzyUrz7JHLn/PiJ/BB0Aeq//u9YCSqSWqyclqDACYYzDJSumbFmOoD5wxty/boOvv7JN8NiegH76ZH9pMjjOl4rC9XVafqGOF0QfcdeDVv/WoFN3LD0HvxAdo6Ral5FRPKVNYzO24JWUEM35NhYYzHSSPtrrvPrqqrwZDcmLUdpyivafjpBrE5MEp9gOuCWY9KDMRUhgM7mV3xLoc7LkD3Gaff+K7JdP/edb1SFWneJmiNbx7p+i3Becpd+zE9Gxvt9L/bnPROhXy+zZIdJTtF9yB6TpcdL6XFZsWJ1Cc1kP/P8/GX9eQ/FsHz1lVlETgi6MHmYQKKk+vHgbnFlyd33zNgqqZNZAV+o7uQcI67uJfGWoOGgDIBBLWHr7XFc5p7HtY+sVi9Vi5eZVsDmyH0/PUygmElr4M3rdhhSMm+d/74qJREVWJrlQPlOgjhGQBP75Kz9ZbWmLiAtfKW0/sDuKjjQd8b7ZVW/0ZorpPvFdtn+hD2o1751yO4DYwVc2mW5cFH/nSsLA1LS5y+RyEKPgQhM+awzlN2deDfi46ei5YFp4Z2B2wMx76DtfPmPjfAvr+j76QSxgeUVQwEq8AES53OWf/rmSMCErXmcl+jdaVol9GB+ZyzRmBXD8M6Lrtxb+XQCKsDR+53sfsluyMfWRTdTGv8mTdr0SCbdf4vxvhf/856tcblert6Q33oSoDjUa5il8GSwnzl+/nL+vBdUpfx1rR4AflUuZDzXVk2iXrCtxqwDQRcmj2tH5YY1mKtObl/5rMwuc/23ricTXvaafO/7qXNmXR/WQY7I7DuT5sbSKdH1fF9Wco5BGfFkPFT/jabtOqg4Ac6Vo97tdEIMPY5rpV2eJ2hRZep5vvzkup9+dCA122lJ0+fGb06wITM2bvYPrbm44s9X9MTTVpl3/kzKx/iCaGhKzJ1V/dgjgfNlpTKtSFbWwZrEl/SSGu/4q3NHpcvqIlghjS+1yo56V2CnU8ZbKd31nbPSlZQlye4SUSF33J97sowjv9NJOipkbR6vMZbYJ9+YDFSq4mfNYeOutOg0y3Nkj57b5SFXUDY0Il1OZVFv4wrIrAAtnib6hnQVdIC4no8raR/TlVf0/XQSCrjOpecattNI7/mxzxxkefNW4Bvc5VoD/Mf8CWNsTuVNZklbszoGVxnOdeL/P0yO50VnzVPXnZ4DyuoSpo7DTaettlsaVGX/atC4kyKcF7klXznnxd11Tb2+nsPJTrXu70jvNbtiq8fbqHPq/nEj8fmrkF2+c9BpxXjfx+vznqXxul7Ue7fV7/9NfV4SKwssm/3M8fOX8+e9gJYsk7X6O/b4l76JWPxEN9cl6gWBP5hOP8zTNYVMi3m69ATFaTLq3Rz+lXx9JjUomb3sX+z5tHz5zXvlzLPVK18fe803cUfJQjsQ8pvDynks0PAbSSnhbdnvZzJn3q0kyfOWOVzzgvnxzhXmL5+Z5xPzbyVJmfnemS/L3E0RUK4zk76562dg8Kwc+/UxT0p5r8znE8uPqhzGK05+9BwtOmWwuWsZexudZtiducqZ88U9b0t8rpq06xJl6fwk/l38U8uzZb+fiW2CXjOxj35zG8XnCgpy9YaVzS3xuvmVF6cqndZ8Ueaul07Z7Z9BLivpytBjWq7Okrqo/3Fkf17UNneXy+Y1yRPyJhlrrqIsz0tG5zqZqoTa8yCl0q/TNVdPDBzw/qbdPy34urDk+b5ndrzF/xzlotjXS9prWl3PekyXnqjZbx6yvI89x+s6kM/nL20ZY3zeC8H5nu7d1y67MxwDnfzdzlxdNlq6MLlc67TnuBoe9AYC13tlRKd19wm4tOtn/l6G/tQrN93R03U9IbAKfo75BTL5JdG4eUEn0HhDRpL2U0+ybKWfDwhkst/PZB/J13/4lVx3bX9Tn5sBb2tc3NBrZpyZ1eQUZwWvf0ieK8zfka4+6TWbDxx8P+OAS4sd6JCdB033QYcKgrp/l5yp8LJ0PNcuO/clyrINy4AK0HY+ERDonTsjXcftMV1BqquWSuOWZtkROF/XaTlwUL1GVa1szaX7ZMbsNL47D+msX+5fgG9Z8920qy/U5AqDdxuzyqK3+UZ2pqQKLoRbcuw/dJk3rODL4eyjf3nF38/YJ1es8SPdMTOWwqHOrR5ob83HFEIFRbdIbLfGrXh/xdcTt3ar48874NJMGfrYEhLHdSCwBSG38xL7o50UIfXadI5rOH0FWivGedHzNSVdl1alW8/hpCrUaVOj6/37pZ30wZsdO8NrtBjHNy6f9+wV+3rR17Tf++6M8TqS/isgP1m+7zn9v2TKyOXznr8a2ayDp8G+rJJOxQ70Jn1XQ6OlawqZFi1dQMZM69j/v707Bm0zPeMA/oTS+WwI9CxDZBXqMYk5AqYGQUtuMCkkQ3P0ti6BQ0MFnu4m11NubQcj6HKbQ7LEw2EKNxkOh4Y62w1ZbAUil2KQbumaWvLr9ly3tuTqlcP3/X5g8r5fgsGT89fzvv8vzptQXY9685PBpO78T+JOJm2jTfKK5eJPzAEojuOTLP/H772l5XjyqGbSlZh0AcWUzqGfKdc45TDedIb5GPQwNlq70RncK1vOcBcIAN4f/SOCxx9IjnaC5YeO71V34+VfBK4+oQsotH65R7984z/vUs/1SziaJ+fOz5ZwnNF+ESt/6h+FrEXjseAFQDH9607Wq28uP6GqLsbvBt/jryU9HXKW0AUU0w9aDz969El8efJi5PT15drduL/QP6u+F5urW8Pdufh2K1ZW+xOvI9qYACio/n3p04VWw7p+FNqWj0usjn6/rl/qexSTO10F4k4XnDW3tBgPf1WLmZn0AuXkpLVw59vD8y90k7jTBcBFjht/Z45C2x+PApffr/8mdBWI0AUAAO8fxwsBAAAyEroAAAAyEroKxNFCAAB4/whdAAAAGQldAAAAGQldAAAAGQldAAAAGQldAAAAGXk5csHUm41oLKRNdKNz0Ivnra3YbqdHAADARJl0Fdp0VGZq0Vhbjnp6AgAATJbQVTDbf1iP3/w2fa1+E5sH/adTMVsd/DUAADBhQleRtV/Hzm43bQAAgKsgdBXcfqeXVgAAwFUQugpurjKVVgAAwFUQukqhF2+1FwIAwJUQugAAADISukqhFo3Hi1HXYAgAABP3o598+OHv0zo++GAqvv++uMULRf/5/pved3+Lv1crMfuzn8Yvf3Enfv3gTvz8x3vx5+/+kf4FAACQk0lXSVTSnwAAwGQJXUW3dCcaC9MRB3uxvvp08NLklWeH6S8BAIDchK6CO66M78Zmayu228IWAABMmtBVCirjAQDgqghdpTAVs5oLAQDgSghdAAAAGQldBbffKVdFPgAAvG+EroI7LtIAAACuitBVZNX5eHhvOm0AAICrIHQVTL3ZiCdfpa+1u/FR/+HBXuxoLwQAgCshdBVaNzqvdmO99SL20xMAAGCyrt28dftdWseNG3Px5k1x/3te9J8PAAB4/5h0AQAAZCR0AQAAZCR0AQAAZFSq0OU+FwAAMGkmXQAAABkJXQAAABkJXQAAABkJXQAAABkJXQAAABldu3nr9ru0jhs35grf8FdvNqKxkDbRjc5BL563tmK7nR4BAACMUcknXdNRmalFY2056ukJAADAOJVu0nVKdT4+/exu3J/pxubqRmyYdgEAAGNW7klX+3Xs7HbTBgAAYPxKX6Sx3+mlFQAAwPiVPnTNVabSCgAAYPxUxg/04q37XAAAQAZCFwAAQEZC10AtGo8Xo15NWwAAgDEpd2X8wPWoNz+OBwvTUUlPOl8/jZVnh2kHAABweSZdyUngAgAAGCeTrqXlePKoFnGwF+utl7HdNuECAADGR2X8oDK+G5utLYELAAAYO8cLB1TGAwAAeQhdA1Mxq7kQAADIQOgCAADIqPSha7/TSysAAIDxU6QxKNIAAADIo9yhqzofD+9Npw0AAMD4le49XfVmIxoLaXPiYDc+/+JFlOwNZQAAwASU/HhhNzqvdmO9JXABAAB5lG7SBQAAMEkq4wEAADISugAAADISugAAADI6Fbrc5wIAABgvky4AAICMhC4AAICMhC4AAICMhC4AAICMhC4AAICMrt28dftdWg/Um41oLKRNdKNz0Ivnra3YbqdHAAAADO2CSdd0VGZq0Vhbjnp6AgAAwPDOTLpOqc7Hp5/djfsz3dhc3YgN0y4AAICRnD/par+Ond1u2gAAADCqC4s09ju9tAIAAGBUF4auucpUWgEAADCqISvje/HWfS4AAICRDRm6AAAAuIwhQ1ctGo8Xo15NWwAAAIZyfmX8wPWoNz+OBwvTUUlPOl8/jZVnh2kHAADA/zL08cKTwAUAAMDwLp50LS3Hk0e1iIO9WG+9jO22CRcAAMCwhqyM78Zma0vgAgAAGJHKeAAAgIyGDF1TMau5EAAAYGRDF2kAAAAwugtD136nl1YAAACMasgiDQAAAC7j/NBVnY+H96bTBgAAgFGdeU9XvdmIxkLanDjYjc+/eBH7aQsAAMBwLjhe2I3Oq91YbwlcAAAAl3Fm0gUAAMD4qIwHAADISOgCAADISOgCAADISOgCAADISOgCAADISOgCAADISOgCAADISOgCAADISOgCAADISOgCAADIJuKfeRkBaNpNW7MAAAAASUVORK5CYII=;" vertex="1" parent="1">
          <mxGeometry x="594.5" y="200" width="861" height="700" as="geometry" />
        </mxCell>
      </root>
    </mxGraphModel>
  </diagram>
</mxfile>
